<svg width="1136" height="268" viewBox="0 0 1136 268" fill="none" xmlns="http://www.w3.org/2000/svg">
<path d="M35.5864 68.97C25.5797 68.97 17.2831 65.6767 10.6964 59.09C4.10974 52.3767 0.816406 44.175 0.816406 34.485C0.816406 24.7317 4.10974 16.5617 10.6964 9.975C17.2197 3.325 25.5164 0 35.5864 0C41.6031 0 47.1447 1.425 52.2114 4.275C57.3414 7.125 61.3314 10.9883 64.1814 15.865L54.6814 21.375C52.9081 18.0817 50.3114 15.485 46.8914 13.585C43.5347 11.6217 39.7664 10.64 35.5864 10.64C28.5564 10.64 22.7931 12.8883 18.2964 17.385C13.9264 21.8183 11.7414 27.5183 11.7414 34.485C11.7414 41.4517 13.9264 47.1517 18.2964 51.585C22.7931 56.0817 28.5564 58.33 35.5864 58.33C39.7664 58.33 43.5664 57.38 46.9864 55.48C50.4064 53.5167 52.9714 50.8883 54.6814 47.595L64.1814 53.01C61.4581 57.8233 57.4997 61.7183 52.3064 64.695C47.3031 67.545 41.7297 68.97 35.5864 68.97Z" fill="url(#paint0_linear_1491_216)"/>
<path d="M112.685 61.75C107.872 66.5633 101.95 68.97 94.9198 68.97C87.8898 68.97 81.9682 66.5633 77.1548 61.75C72.2782 56.8733 69.8398 50.9517 69.8398 43.985C69.8398 37.0183 72.2782 31.0967 77.1548 26.22C81.9682 21.4067 87.8898 19 94.9198 19C101.95 19 107.872 21.4067 112.685 26.22C117.562 31.0967 120 37.0183 120 43.985C120 50.9517 117.562 56.8733 112.685 61.75ZM80.0998 43.985C80.0998 48.2917 81.5248 51.87 84.3748 54.72C87.2248 57.57 90.7398 58.995 94.9198 58.995C99.0998 58.995 102.615 57.57 105.465 54.72C108.315 51.87 109.74 48.2917 109.74 43.985C109.74 39.6783 108.315 36.1 105.465 33.25C102.615 30.4 99.0998 28.975 94.9198 28.975C90.7398 28.975 87.2248 30.4 84.3748 33.25C81.5248 36.1 80.0998 39.6783 80.0998 43.985Z" fill="url(#paint1_linear_1491_216)"/>
<path d="M154.262 19C159.772 19 164.174 20.7733 167.467 24.32C170.824 27.8033 172.502 32.5533 172.502 38.57V67.735H162.242V39.615C162.242 36.0683 161.292 33.345 159.392 31.445C157.492 29.545 154.896 28.595 151.602 28.595C147.866 28.595 144.921 29.7667 142.767 32.11C140.614 34.39 139.537 37.7783 139.537 42.275V67.735H129.277V20.235H139.537V26.315C142.704 21.4383 147.612 19 154.262 19Z" fill="url(#paint2_linear_1491_216)"/>
<path d="M208.535 19C214.045 19 218.446 20.7733 221.74 24.32C225.096 27.8033 226.775 32.5533 226.775 38.57V67.735H216.515V39.615C216.515 36.0683 215.565 33.345 213.665 31.445C211.765 29.545 209.168 28.595 205.875 28.595C202.138 28.595 199.193 29.7667 197.04 32.11C194.886 34.39 193.81 37.7783 193.81 42.275V67.735H183.55V20.235H193.81V26.315C196.976 21.4383 201.885 19 208.535 19Z" fill="url(#paint3_linear_1491_216)"/>
<path d="M283.707 48.355H245.897C246.657 51.9017 248.367 54.6567 251.027 56.62C253.75 58.5833 257.107 59.565 261.097 59.565C266.48 59.565 270.565 57.6017 273.352 53.675L281.807 58.615C277.184 65.5183 270.249 68.97 261.002 68.97C253.339 68.97 247.1 66.6267 242.287 61.94C237.537 57.19 235.162 51.205 235.162 43.985C235.162 36.955 237.505 31.0333 242.192 26.22C246.815 21.4067 252.832 19 260.242 19C267.145 19 272.845 21.4383 277.342 26.315C281.839 31.1917 284.087 37.1133 284.087 44.08C284.087 45.3467 283.96 46.7717 283.707 48.355ZM245.802 39.995H273.732C273.035 36.2583 271.452 33.3767 268.982 31.35C266.575 29.3233 263.63 28.31 260.147 28.31C256.347 28.31 253.18 29.355 250.647 31.445C248.114 33.535 246.499 36.385 245.802 39.995Z" fill="url(#paint4_linear_1491_216)"/>
<path d="M315.257 68.97C308.1 68.97 302.115 66.5633 297.302 61.75C292.552 56.8733 290.177 50.9517 290.177 43.985C290.177 36.8917 292.552 30.97 297.302 26.22C302.115 21.4067 308.1 19 315.257 19C319.88 19 324.092 20.1083 327.892 22.325C331.692 24.5417 334.542 27.5183 336.442 31.255L327.607 36.385C326.53 34.105 324.883 32.3317 322.667 31.065C320.513 29.735 318.012 29.07 315.162 29.07C310.982 29.07 307.467 30.495 304.617 33.345C301.83 36.2583 300.437 39.805 300.437 43.985C300.437 48.165 301.83 51.7117 304.617 54.625C307.467 57.475 310.982 58.9 315.162 58.9C317.948 58.9 320.45 58.2667 322.667 57C324.947 55.67 326.657 53.865 327.797 51.585L336.632 56.62C334.605 60.42 331.66 63.4283 327.797 65.645C323.997 67.8617 319.817 68.97 315.257 68.97Z" fill="url(#paint5_linear_1491_216)"/>
<path d="M370.553 20.235V30.115H358.773V52.915C358.773 54.8783 359.216 56.3033 360.103 57.19C360.989 58.0133 362.288 58.4883 363.998 58.615C365.771 58.6783 367.956 58.6467 370.553 58.52V67.735C362.699 68.685 357.063 68.02 353.643 65.74C350.223 63.3967 348.513 59.1217 348.513 52.915V30.115H339.773V20.235H348.513V9.975L358.773 6.935V20.235H370.553Z" fill="url(#paint6_linear_1491_216)"/>
<path d="M429.057 19C434.567 19 438.969 20.7733 442.262 24.32C445.619 27.8033 447.297 32.5533 447.297 38.57V67.735H437.037V39.615C437.037 36.0683 436.087 33.345 434.187 31.445C432.287 29.545 429.69 28.595 426.397 28.595C422.66 28.595 419.715 29.7667 417.562 32.11C415.409 34.39 414.332 37.7783 414.332 42.275V67.735H404.072V20.235H414.332V26.315C417.499 21.4383 422.407 19 429.057 19Z" fill="url(#paint7_linear_1491_216)"/>
<path d="M504.23 48.355H466.42C467.18 51.9017 468.89 54.6567 471.55 56.62C474.273 58.5833 477.63 59.565 481.62 59.565C487.003 59.565 491.088 57.6017 493.875 53.675L502.33 58.615C497.706 65.5183 490.771 68.97 481.525 68.97C473.861 68.97 467.623 66.6267 462.81 61.94C458.06 57.19 455.685 51.205 455.685 43.985C455.685 36.955 458.028 31.0333 462.715 26.22C467.338 21.4067 473.355 19 480.765 19C487.668 19 493.368 21.4383 497.865 26.315C502.361 31.1917 504.61 37.1133 504.61 44.08C504.61 45.3467 504.483 46.7717 504.23 48.355ZM466.325 39.995H494.255C493.558 36.2583 491.975 33.3767 489.505 31.35C487.098 29.3233 484.153 28.31 480.67 28.31C476.87 28.31 473.703 29.355 471.17 31.445C468.636 33.535 467.021 36.385 466.325 39.995Z" fill="url(#paint8_linear_1491_216)"/>
<path d="M557.192 53.01L566.502 20.235H577.332L562.417 67.735H552.347L542.467 35.72L532.492 67.735H522.422L507.507 20.235H518.337L527.552 53.01L537.527 20.235H547.312L557.192 53.01Z" fill="url(#paint9_linear_1491_216)"/>
<path d="M579.202 56.335H590.602L583.952 81.035H575.402L579.202 56.335Z" fill="url(#paint10_linear_1491_216)"/>
<path d="M443.655 155.75C438.842 160.563 432.92 162.97 425.89 162.97C418.86 162.97 412.938 160.563 408.125 155.75C403.248 150.873 400.81 144.952 400.81 137.985C400.81 131.018 403.248 125.097 408.125 120.22C412.938 115.407 418.86 113 425.89 113C432.92 113 438.842 115.407 443.655 120.22C448.532 125.097 450.97 131.018 450.97 137.985C450.97 144.952 448.532 150.873 443.655 155.75ZM411.07 137.985C411.07 142.292 412.495 145.87 415.345 148.72C418.195 151.57 421.71 152.995 425.89 152.995C430.07 152.995 433.585 151.57 436.435 148.72C439.285 145.87 440.71 142.292 440.71 137.985C440.71 133.678 439.285 130.1 436.435 127.25C433.585 124.4 430.07 122.975 425.89 122.975C421.71 122.975 418.195 124.4 415.345 127.25C412.495 130.1 411.07 133.678 411.07 137.985Z" fill="url(#paint11_linear_1491_216)"/>
<path d="M477.392 150.335L490.597 114.235H501.807L483.282 161.735H471.407L452.882 114.235H464.092L477.392 150.335Z" fill="url(#paint12_linear_1491_216)"/>
<path d="M552.334 142.355H514.524C515.284 145.902 516.994 148.657 519.654 150.62C522.377 152.583 525.734 153.565 529.724 153.565C535.107 153.565 539.192 151.602 541.979 147.675L550.434 152.615C545.81 159.518 538.875 162.97 529.629 162.97C521.965 162.97 515.727 160.627 510.914 155.94C506.164 151.19 503.789 145.205 503.789 137.985C503.789 130.955 506.132 125.033 510.819 120.22C515.442 115.407 521.459 113 528.869 113C535.772 113 541.472 115.438 545.969 120.315C550.465 125.192 552.714 131.113 552.714 138.08C552.714 139.347 552.587 140.772 552.334 142.355ZM514.429 133.995H542.359C541.662 130.258 540.079 127.377 537.609 125.35C535.202 123.323 532.257 122.31 528.774 122.31C524.974 122.31 521.807 123.355 519.274 125.445C516.74 127.535 515.125 130.385 514.429 133.995Z" fill="url(#paint13_linear_1491_216)"/>
<path d="M572.002 114.235V122.215C574.598 116.325 579.475 113.38 586.632 113.38V124.495C582.768 124.242 579.348 125.192 576.372 127.345C573.458 129.435 572.002 132.918 572.002 137.795V161.735H561.742V114.235H572.002Z" fill="url(#paint14_linear_1491_216)"/>
<path d="M621.923 114.235V124.115H610.143V146.915C610.143 148.878 610.587 150.303 611.473 151.19C612.36 152.013 613.658 152.488 615.368 152.615C617.142 152.678 619.327 152.647 621.923 152.52V161.735C614.07 162.685 608.433 162.02 605.013 159.74C601.593 157.397 599.883 153.122 599.883 146.915V124.115H591.143V114.235H599.883V103.975L610.143 100.935V114.235H621.923Z" fill="url(#paint15_linear_1491_216)"/>
<path d="M666.901 120.98V114.235H677.161V161.735H666.901V154.895C663.037 160.278 657.496 162.97 650.276 162.97C643.752 162.97 638.179 160.563 633.556 155.75C628.932 150.937 626.621 145.015 626.621 137.985C626.621 130.955 628.932 125.033 633.556 120.22C638.179 115.407 643.752 113 650.276 113C657.496 113 663.037 115.66 666.901 120.98ZM641.156 148.91C644.006 151.76 647.584 153.185 651.891 153.185C656.197 153.185 659.776 151.76 662.626 148.91C665.476 145.997 666.901 142.355 666.901 137.985C666.901 133.615 665.476 130.005 662.626 127.155C659.776 124.242 656.197 122.785 651.891 122.785C647.584 122.785 644.006 124.242 641.156 127.155C638.306 130.005 636.881 133.615 636.881 137.985C636.881 142.292 638.306 145.933 641.156 148.91Z" fill="url(#paint16_linear_1491_216)"/>
<path d="M709.449 137.51L731.109 161.735H718.854L699.379 139.79V161.735H689.119V95.235H699.379V135.23L717.809 114.235H730.349L709.449 137.51Z" fill="url(#paint17_linear_1491_216)"/>
<path d="M780.092 142.355H742.282C743.042 145.902 744.752 148.657 747.412 150.62C750.136 152.583 753.492 153.565 757.482 153.565C762.866 153.565 766.951 151.602 769.737 147.675L778.192 152.615C773.569 159.518 766.634 162.97 757.387 162.97C749.724 162.97 743.486 160.627 738.672 155.94C733.922 151.19 731.547 145.205 731.547 137.985C731.547 130.955 733.891 125.033 738.577 120.22C743.201 115.407 749.217 113 756.627 113C763.531 113 769.231 115.438 773.727 120.315C778.224 125.192 780.472 131.113 780.472 138.08C780.472 139.347 780.346 140.772 780.092 142.355ZM742.187 133.995H770.117C769.421 130.258 767.837 127.377 765.367 125.35C762.961 123.323 760.016 122.31 756.532 122.31C752.732 122.31 749.566 123.355 747.032 125.445C744.499 127.535 742.884 130.385 742.187 133.995Z" fill="url(#paint18_linear_1491_216)"/>
<path d="M619.842 249.97C612.686 249.97 606.701 247.563 601.887 242.75C597.137 237.873 594.762 231.952 594.762 224.985C594.762 217.892 597.137 211.97 601.887 207.22C606.701 202.407 612.686 200 619.842 200C624.466 200 628.677 201.108 632.477 203.325C636.277 205.542 639.127 208.518 641.027 212.255L632.192 217.385C631.116 215.105 629.469 213.332 627.252 212.065C625.099 210.735 622.597 210.07 619.747 210.07C615.567 210.07 612.052 211.495 609.202 214.345C606.416 217.258 605.022 220.805 605.022 224.985C605.022 229.165 606.416 232.712 609.202 235.625C612.052 238.475 615.567 239.9 619.747 239.9C622.534 239.9 625.036 239.267 627.252 238C629.532 236.67 631.242 234.865 632.382 232.585L641.217 237.62C639.191 241.42 636.246 244.428 632.382 246.645C628.582 248.862 624.402 249.97 619.842 249.97Z" fill="url(#paint19_linear_1491_216)"/>
<path d="M688.076 242.75C683.263 247.563 677.341 249.97 670.311 249.97C663.281 249.97 657.359 247.563 652.546 242.75C647.669 237.873 645.231 231.952 645.231 224.985C645.231 218.018 647.669 212.097 652.546 207.22C657.359 202.407 663.281 200 670.311 200C677.341 200 683.263 202.407 688.076 207.22C692.953 212.097 695.391 218.018 695.391 224.985C695.391 231.952 692.953 237.873 688.076 242.75ZM655.491 224.985C655.491 229.292 656.916 232.87 659.766 235.72C662.616 238.57 666.131 239.995 670.311 239.995C674.491 239.995 678.006 238.57 680.856 235.72C683.706 232.87 685.131 229.292 685.131 224.985C685.131 220.678 683.706 217.1 680.856 214.25C678.006 211.4 674.491 209.975 670.311 209.975C666.131 209.975 662.616 211.4 659.766 214.25C656.916 217.1 655.491 220.678 655.491 224.985Z" fill="url(#paint20_linear_1491_216)"/>
<path d="M756.538 200C761.922 200 766.26 201.742 769.553 205.225C772.847 208.708 774.493 213.395 774.493 219.285V248.735H764.233V219.95C764.233 216.72 763.41 214.187 761.763 212.35C760.117 210.513 757.868 209.595 755.018 209.595C751.788 209.595 749.255 210.672 747.418 212.825C745.582 214.915 744.663 218.018 744.663 222.135V248.735H734.403V219.95C734.403 216.657 733.612 214.123 732.028 212.35C730.508 210.513 728.323 209.595 725.473 209.595C722.307 209.595 719.742 210.672 717.778 212.825C715.878 214.978 714.928 218.082 714.928 222.135V248.735H704.668V201.235H714.928V206.935C717.968 202.312 722.497 200 728.513 200C734.593 200 739.09 202.502 742.003 207.505C745.107 202.502 749.952 200 756.538 200Z" fill="url(#paint21_linear_1491_216)"/>
<path d="M812.359 200C818.819 200 824.392 202.438 829.079 207.315C833.702 212.128 836.014 218.018 836.014 224.985C836.014 232.015 833.702 237.937 829.079 242.75C824.456 247.563 818.882 249.97 812.359 249.97C805.202 249.97 799.661 247.31 795.734 241.99V267.735H785.474V201.235H795.734V208.075C799.597 202.692 805.139 200 812.359 200ZM800.009 235.91C802.859 238.76 806.437 240.185 810.744 240.185C815.051 240.185 818.629 238.76 821.479 235.91C824.329 232.997 825.754 229.355 825.754 224.985C825.754 220.615 824.329 217.005 821.479 214.155C818.629 211.242 815.051 209.785 810.744 209.785C806.437 209.785 802.859 211.242 800.009 214.155C797.159 217.005 795.734 220.615 795.734 224.985C795.734 229.292 797.159 232.933 800.009 235.91Z" fill="url(#paint22_linear_1491_216)"/>
<path d="M891.198 229.355H853.388C854.148 232.902 855.858 235.657 858.518 237.62C861.241 239.583 864.598 240.565 868.588 240.565C873.971 240.565 878.056 238.602 880.843 234.675L889.298 239.615C884.674 246.518 877.74 249.97 868.493 249.97C860.83 249.97 854.591 247.627 849.778 242.94C845.028 238.19 842.653 232.205 842.653 224.985C842.653 217.955 844.996 212.033 849.683 207.22C854.306 202.407 860.323 200 867.733 200C874.636 200 880.336 202.438 884.833 207.315C889.329 212.192 891.578 218.113 891.578 225.08C891.578 226.347 891.451 227.772 891.198 229.355ZM853.293 220.995H881.223C880.526 217.258 878.943 214.377 876.473 212.35C874.066 210.323 871.121 209.31 867.638 209.31C863.838 209.31 860.671 210.355 858.138 212.445C855.604 214.535 853.99 217.385 853.293 220.995Z" fill="url(#paint23_linear_1491_216)"/>
<path d="M925.626 201.235V211.115H913.846V233.915C913.846 235.878 914.29 237.303 915.176 238.19C916.063 239.013 917.361 239.488 919.071 239.615C920.845 239.678 923.03 239.647 925.626 239.52V248.735C917.773 249.685 912.136 249.02 908.716 246.74C905.296 244.397 903.586 240.122 903.586 233.915V211.115H894.846V201.235H903.586V190.975L913.846 187.935V201.235H925.626Z" fill="url(#paint24_linear_1491_216)"/>
<path d="M944.622 192.21C943.355 193.477 941.835 194.11 940.062 194.11C938.289 194.11 936.737 193.477 935.407 192.21C934.14 190.88 933.507 189.328 933.507 187.555C933.507 185.782 934.14 184.262 935.407 182.995C936.674 181.665 938.225 181 940.062 181C941.899 181 943.45 181.665 944.717 182.995C945.984 184.262 946.617 185.782 946.617 187.555C946.617 189.328 945.952 190.88 944.622 192.21ZM945.192 248.735H934.932V201.235H945.192V248.735Z" fill="url(#paint25_linear_1491_216)"/>
<path d="M983.61 201.235V211.115H971.83V233.915C971.83 235.878 972.273 237.303 973.16 238.19C974.047 239.013 975.345 239.488 977.055 239.615C978.828 239.678 981.013 239.647 983.61 239.52V248.735C975.756 249.685 970.12 249.02 966.7 246.74C963.28 244.397 961.57 240.122 961.57 233.915V211.115H952.83V201.235H961.57V190.975L971.83 187.935V201.235H983.61Z" fill="url(#paint26_linear_1491_216)"/>
<path d="M1031.15 242.75C1026.34 247.563 1020.42 249.97 1013.39 249.97C1006.36 249.97 1000.44 247.563 995.622 242.75C990.745 237.873 988.307 231.952 988.307 224.985C988.307 218.018 990.745 212.097 995.622 207.22C1000.44 202.407 1006.36 200 1013.39 200C1020.42 200 1026.34 202.407 1031.15 207.22C1036.03 212.097 1038.47 218.018 1038.47 224.985C1038.47 231.952 1036.03 237.873 1031.15 242.75ZM998.567 224.985C998.567 229.292 999.992 232.87 1002.84 235.72C1005.69 238.57 1009.21 239.995 1013.39 239.995C1017.57 239.995 1021.08 238.57 1023.93 235.72C1026.78 232.87 1028.21 229.292 1028.21 224.985C1028.21 220.678 1026.78 217.1 1023.93 214.25C1021.08 211.4 1017.57 209.975 1013.39 209.975C1009.21 209.975 1005.69 211.4 1002.84 214.25C999.992 217.1 998.567 220.678 998.567 224.985Z" fill="url(#paint27_linear_1491_216)"/>
<path d="M1058 201.235V209.215C1060.6 203.325 1065.48 200.38 1072.63 200.38V211.495C1068.77 211.242 1065.35 212.192 1062.37 214.345C1059.46 216.435 1058 219.918 1058 224.795V248.735H1047.74V201.235H1058Z" fill="url(#paint28_linear_1491_216)"/>
<path d="M1087.76 214.345C1087.76 215.802 1088.52 217.005 1090.04 217.955C1091.56 218.842 1093.78 219.697 1096.69 220.52C1098.91 221.027 1100.84 221.565 1102.49 222.135C1104.13 222.705 1105.87 223.56 1107.71 224.7C1109.55 225.777 1110.94 227.233 1111.89 229.07C1112.9 230.843 1113.38 232.933 1113.32 235.34C1113.32 239.9 1111.54 243.478 1108 246.075C1104.45 248.672 1100.05 249.97 1094.79 249.97C1090.1 249.97 1086.08 248.988 1082.73 247.025C1079.37 245.062 1076.93 242.338 1075.41 238.855L1084.25 233.725C1085.83 238.285 1089.34 240.565 1094.79 240.565C1100.17 240.565 1102.87 238.792 1102.87 235.245C1102.87 232.648 1099.86 230.622 1093.84 229.165C1091.56 228.595 1089.63 228.025 1088.05 227.455C1086.53 226.885 1084.82 226.062 1082.92 224.985C1081.08 223.908 1079.65 222.483 1078.64 220.71C1077.69 218.937 1077.25 216.878 1077.31 214.535C1077.31 210.165 1078.96 206.65 1082.25 203.99C1085.61 201.33 1089.76 200 1094.7 200C1098.62 200 1102.11 200.887 1105.15 202.66C1108.25 204.37 1110.62 206.777 1112.27 209.88L1103.63 214.725C1102.04 211.115 1099.07 209.31 1094.7 209.31C1092.67 209.31 1090.99 209.753 1089.66 210.64C1088.39 211.527 1087.76 212.762 1087.76 214.345Z" fill="url(#paint29_linear_1491_216)"/>
<path d="M1132.5 227.835H1124.42L1122.33 201.235V182.235H1134.68V201.235L1132.5 227.835ZM1128.51 235.625C1130.47 235.625 1132.15 236.322 1133.54 237.715C1134.94 239.108 1135.63 240.787 1135.63 242.75C1135.63 244.713 1134.94 246.392 1133.54 247.785C1132.15 249.178 1130.47 249.875 1128.51 249.875C1126.55 249.875 1124.87 249.178 1123.47 247.785C1122.08 246.392 1121.38 244.713 1121.38 242.75C1121.38 240.787 1122.05 239.108 1123.38 237.715C1124.77 236.322 1126.48 235.625 1128.51 235.625Z" fill="url(#paint30_linear_1491_216)"/>
<defs>
<linearGradient id="paint0_linear_1491_216" x1="-51.5" y1="92.7348" x2="1181.5" y2="210.735" gradientUnits="userSpaceOnUse">
<stop stop-color="#E41ED7"/>
<stop offset="0.510417" stop-color="#374FF2"/>
<stop offset="1" stop-color="#E51FD8"/>
</linearGradient>
<linearGradient id="paint1_linear_1491_216" x1="-51.5" y1="92.7348" x2="1181.5" y2="210.735" gradientUnits="userSpaceOnUse">
<stop stop-color="#E41ED7"/>
<stop offset="0.510417" stop-color="#374FF2"/>
<stop offset="1" stop-color="#E51FD8"/>
</linearGradient>
<linearGradient id="paint2_linear_1491_216" x1="-51.5" y1="92.7348" x2="1181.5" y2="210.735" gradientUnits="userSpaceOnUse">
<stop stop-color="#E41ED7"/>
<stop offset="0.510417" stop-color="#374FF2"/>
<stop offset="1" stop-color="#E51FD8"/>
</linearGradient>
<linearGradient id="paint3_linear_1491_216" x1="-51.5" y1="92.7348" x2="1181.5" y2="210.735" gradientUnits="userSpaceOnUse">
<stop stop-color="#E41ED7"/>
<stop offset="0.510417" stop-color="#374FF2"/>
<stop offset="1" stop-color="#E51FD8"/>
</linearGradient>
<linearGradient id="paint4_linear_1491_216" x1="-51.5" y1="92.7348" x2="1181.5" y2="210.735" gradientUnits="userSpaceOnUse">
<stop stop-color="#E41ED7"/>
<stop offset="0.510417" stop-color="#374FF2"/>
<stop offset="1" stop-color="#E51FD8"/>
</linearGradient>
<linearGradient id="paint5_linear_1491_216" x1="-51.5" y1="92.7348" x2="1181.5" y2="210.735" gradientUnits="userSpaceOnUse">
<stop stop-color="#E41ED7"/>
<stop offset="0.510417" stop-color="#374FF2"/>
<stop offset="1" stop-color="#E51FD8"/>
</linearGradient>
<linearGradient id="paint6_linear_1491_216" x1="-51.5" y1="92.7348" x2="1181.5" y2="210.735" gradientUnits="userSpaceOnUse">
<stop stop-color="#E41ED7"/>
<stop offset="0.510417" stop-color="#374FF2"/>
<stop offset="1" stop-color="#E51FD8"/>
</linearGradient>
<linearGradient id="paint7_linear_1491_216" x1="-51.5" y1="92.7348" x2="1181.5" y2="210.735" gradientUnits="userSpaceOnUse">
<stop stop-color="#E41ED7"/>
<stop offset="0.510417" stop-color="#374FF2"/>
<stop offset="1" stop-color="#E51FD8"/>
</linearGradient>
<linearGradient id="paint8_linear_1491_216" x1="-51.5" y1="92.7348" x2="1181.5" y2="210.735" gradientUnits="userSpaceOnUse">
<stop stop-color="#E41ED7"/>
<stop offset="0.510417" stop-color="#374FF2"/>
<stop offset="1" stop-color="#E51FD8"/>
</linearGradient>
<linearGradient id="paint9_linear_1491_216" x1="-51.5" y1="92.7348" x2="1181.5" y2="210.735" gradientUnits="userSpaceOnUse">
<stop stop-color="#E41ED7"/>
<stop offset="0.510417" stop-color="#374FF2"/>
<stop offset="1" stop-color="#E51FD8"/>
</linearGradient>
<linearGradient id="paint10_linear_1491_216" x1="-51.5" y1="92.7348" x2="1181.5" y2="210.735" gradientUnits="userSpaceOnUse">
<stop stop-color="#E41ED7"/>
<stop offset="0.510417" stop-color="#374FF2"/>
<stop offset="1" stop-color="#E51FD8"/>
</linearGradient>
<linearGradient id="paint11_linear_1491_216" x1="-51.5" y1="92.7348" x2="1181.5" y2="210.735" gradientUnits="userSpaceOnUse">
<stop stop-color="#E41ED7"/>
<stop offset="0.510417" stop-color="#374FF2"/>
<stop offset="1" stop-color="#E51FD8"/>
</linearGradient>
<linearGradient id="paint12_linear_1491_216" x1="-51.5" y1="92.7348" x2="1181.5" y2="210.735" gradientUnits="userSpaceOnUse">
<stop stop-color="#E41ED7"/>
<stop offset="0.510417" stop-color="#374FF2"/>
<stop offset="1" stop-color="#E51FD8"/>
</linearGradient>
<linearGradient id="paint13_linear_1491_216" x1="-51.5" y1="92.7348" x2="1181.5" y2="210.735" gradientUnits="userSpaceOnUse">
<stop stop-color="#E41ED7"/>
<stop offset="0.510417" stop-color="#374FF2"/>
<stop offset="1" stop-color="#E51FD8"/>
</linearGradient>
<linearGradient id="paint14_linear_1491_216" x1="-51.5" y1="92.7348" x2="1181.5" y2="210.735" gradientUnits="userSpaceOnUse">
<stop stop-color="#E41ED7"/>
<stop offset="0.510417" stop-color="#374FF2"/>
<stop offset="1" stop-color="#E51FD8"/>
</linearGradient>
<linearGradient id="paint15_linear_1491_216" x1="-51.5" y1="92.7348" x2="1181.5" y2="210.735" gradientUnits="userSpaceOnUse">
<stop stop-color="#E41ED7"/>
<stop offset="0.510417" stop-color="#374FF2"/>
<stop offset="1" stop-color="#E51FD8"/>
</linearGradient>
<linearGradient id="paint16_linear_1491_216" x1="-51.5" y1="92.7348" x2="1181.5" y2="210.735" gradientUnits="userSpaceOnUse">
<stop stop-color="#E41ED7"/>
<stop offset="0.510417" stop-color="#374FF2"/>
<stop offset="1" stop-color="#E51FD8"/>
</linearGradient>
<linearGradient id="paint17_linear_1491_216" x1="-51.5" y1="92.7348" x2="1181.5" y2="210.735" gradientUnits="userSpaceOnUse">
<stop stop-color="#E41ED7"/>
<stop offset="0.510417" stop-color="#374FF2"/>
<stop offset="1" stop-color="#E51FD8"/>
</linearGradient>
<linearGradient id="paint18_linear_1491_216" x1="-51.5" y1="92.7348" x2="1181.5" y2="210.735" gradientUnits="userSpaceOnUse">
<stop stop-color="#E41ED7"/>
<stop offset="0.510417" stop-color="#374FF2"/>
<stop offset="1" stop-color="#E51FD8"/>
</linearGradient>
<linearGradient id="paint19_linear_1491_216" x1="-51.5" y1="92.7348" x2="1181.5" y2="210.735" gradientUnits="userSpaceOnUse">
<stop stop-color="#E41ED7"/>
<stop offset="0.510417" stop-color="#374FF2"/>
<stop offset="1" stop-color="#E51FD8"/>
</linearGradient>
<linearGradient id="paint20_linear_1491_216" x1="-51.5" y1="92.7348" x2="1181.5" y2="210.735" gradientUnits="userSpaceOnUse">
<stop stop-color="#E41ED7"/>
<stop offset="0.510417" stop-color="#374FF2"/>
<stop offset="1" stop-color="#E51FD8"/>
</linearGradient>
<linearGradient id="paint21_linear_1491_216" x1="-51.5" y1="92.7348" x2="1181.5" y2="210.735" gradientUnits="userSpaceOnUse">
<stop stop-color="#E41ED7"/>
<stop offset="0.510417" stop-color="#374FF2"/>
<stop offset="1" stop-color="#E51FD8"/>
</linearGradient>
<linearGradient id="paint22_linear_1491_216" x1="-51.5" y1="92.7348" x2="1181.5" y2="210.735" gradientUnits="userSpaceOnUse">
<stop stop-color="#E41ED7"/>
<stop offset="0.510417" stop-color="#374FF2"/>
<stop offset="1" stop-color="#E51FD8"/>
</linearGradient>
<linearGradient id="paint23_linear_1491_216" x1="-51.5" y1="92.7348" x2="1181.5" y2="210.735" gradientUnits="userSpaceOnUse">
<stop stop-color="#E41ED7"/>
<stop offset="0.510417" stop-color="#374FF2"/>
<stop offset="1" stop-color="#E51FD8"/>
</linearGradient>
<linearGradient id="paint24_linear_1491_216" x1="-51.5" y1="92.7348" x2="1181.5" y2="210.735" gradientUnits="userSpaceOnUse">
<stop stop-color="#E41ED7"/>
<stop offset="0.510417" stop-color="#374FF2"/>
<stop offset="1" stop-color="#E51FD8"/>
</linearGradient>
<linearGradient id="paint25_linear_1491_216" x1="-51.5" y1="92.7348" x2="1181.5" y2="210.735" gradientUnits="userSpaceOnUse">
<stop stop-color="#E41ED7"/>
<stop offset="0.510417" stop-color="#374FF2"/>
<stop offset="1" stop-color="#E51FD8"/>
</linearGradient>
<linearGradient id="paint26_linear_1491_216" x1="-51.5" y1="92.7348" x2="1181.5" y2="210.735" gradientUnits="userSpaceOnUse">
<stop stop-color="#E41ED7"/>
<stop offset="0.510417" stop-color="#374FF2"/>
<stop offset="1" stop-color="#E51FD8"/>
</linearGradient>
<linearGradient id="paint27_linear_1491_216" x1="-51.5" y1="92.7348" x2="1181.5" y2="210.735" gradientUnits="userSpaceOnUse">
<stop stop-color="#E41ED7"/>
<stop offset="0.510417" stop-color="#374FF2"/>
<stop offset="1" stop-color="#E51FD8"/>
</linearGradient>
<linearGradient id="paint28_linear_1491_216" x1="-51.5" y1="92.7348" x2="1181.5" y2="210.735" gradientUnits="userSpaceOnUse">
<stop stop-color="#E41ED7"/>
<stop offset="0.510417" stop-color="#374FF2"/>
<stop offset="1" stop-color="#E51FD8"/>
</linearGradient>
<linearGradient id="paint29_linear_1491_216" x1="-51.5" y1="92.7348" x2="1181.5" y2="210.735" gradientUnits="userSpaceOnUse">
<stop stop-color="#E41ED7"/>
<stop offset="0.510417" stop-color="#374FF2"/>
<stop offset="1" stop-color="#E51FD8"/>
</linearGradient>
<linearGradient id="paint30_linear_1491_216" x1="-51.5" y1="92.7348" x2="1181.5" y2="210.735" gradientUnits="userSpaceOnUse">
<stop stop-color="#E41ED7"/>
<stop offset="0.510417" stop-color="#374FF2"/>
<stop offset="1" stop-color="#E51FD8"/>
</linearGradient>
</defs>
</svg>
