<svg width="57" height="29" viewBox="0 0 57 29" fill="none" xmlns="http://www.w3.org/2000/svg">
<path d="M46.1397 16.2777C45.4551 18.2082 44.7221 20.1386 44.1098 22.1177C43.8161 23.0107 43.5946 23.9763 43.5907 24.9188C43.5854 26.1996 44.7648 27.3646 46.0207 27.5389C46.9144 27.6635 48.3189 26.9684 48.2738 26.1707C48.1177 23.0284 50.1329 20.765 51.3035 18.184C52.3034 15.989 53.6652 13.9647 54.6651 11.7697C55.3966 10.1777 56.0802 8.48878 56.3532 6.77408C56.9984 2.69257 54.0867 -0.340264 50.0963 0.368253C44.558 1.36038 39.067 2.61853 33.8139 4.77183C32.7971 5.20263 31.7798 5.75429 30.9552 6.47588C29.694 7.58234 30.3847 10.026 32.0512 10.2745C33.452 10.4736 34.9268 10.3348 36.3771 10.2441C38.601 10.1083 40.8255 9.85163 43.243 9.64412C43.2157 10.3932 43.3584 10.9496 43.1398 11.2145C39.2791 15.6211 34.8413 19.3244 29.4904 21.7673C25.0111 23.8271 20.3432 24.7021 15.4189 23.3284C8.49107 21.3906 3.92205 15.91 3.46848 8.70644C3.42344 7.90875 3.47497 7.13565 3.47736 6.55566C2.41804 5.58462 1.6672 5.99238 1.25348 6.6915C0.328671 8.25851 0.0799325 9.97325 0.338175 11.811C1.63198 20.3713 8.54064 26.9491 17.2366 27.9276C22.3093 28.4802 27.1699 27.7269 31.819 25.5469C35.6447 23.7502 39.062 21.3718 42.2873 18.6785C43.4028 17.7648 44.4701 16.8024 45.5614 15.8645C45.7301 15.986 45.9228 16.1318 46.1397 16.2777Z" fill="#3850F3"/>
</svg>
