<svg width="29" height="31" viewBox="0 0 29 31" fill="none" xmlns="http://www.w3.org/2000/svg">
<circle cx="14.5" cy="14.5" r="14.5" fill="white"/>
<path d="M15.6497 17.04H13.5797C13.5797 16.56 13.6877 16.11 13.9037 15.69C14.1197 15.258 14.3837 14.892 14.6957 14.592C15.0077 14.28 15.3197 13.986 15.6317 13.71C15.9437 13.422 16.2077 13.11 16.4237 12.774C16.6397 12.438 16.7477 12.096 16.7477 11.748C16.7477 11.256 16.5737 10.872 16.2257 10.596C15.8777 10.32 15.4097 10.182 14.8217 10.182C14.2577 10.182 13.7717 10.326 13.3637 10.614C12.9557 10.902 12.6617 11.31 12.4817 11.838L10.6997 10.83C11.0237 9.99 11.5577 9.336 12.3017 8.868C13.0577 8.4 13.9157 8.166 14.8757 8.166C15.9557 8.166 16.8797 8.472 17.6477 9.084C18.4277 9.696 18.8177 10.542 18.8177 11.622C18.8177 12.114 18.7097 12.582 18.4937 13.026C18.2777 13.47 18.0137 13.848 17.7017 14.16C17.3897 14.472 17.0777 14.778 16.7657 15.078C16.4537 15.366 16.1897 15.678 15.9737 16.014C15.7577 16.35 15.6497 16.692 15.6497 17.04ZM14.6237 18.516C14.9957 18.516 15.3137 18.648 15.5777 18.912C15.8417 19.176 15.9737 19.494 15.9737 19.866C15.9737 20.238 15.8417 20.556 15.5777 20.82C15.3137 21.084 14.9957 21.216 14.6237 21.216C14.2517 21.216 13.9337 21.084 13.6697 20.82C13.4057 20.556 13.2737 20.238 13.2737 19.866C13.2737 19.494 13.3997 19.176 13.6517 18.912C13.9157 18.648 14.2397 18.516 14.6237 18.516Z" fill="#374FF2"/>
</svg>
