<svg width="58" height="51" viewBox="0 0 58 51" fill="none" xmlns="http://www.w3.org/2000/svg">
<circle cx="28.5" cy="33.1934" r="17.5" fill="white"/>
<circle cx="29.0469" cy="33.5156" r="5.5" fill="#374FF2"/>
<path d="M10.1577 14.108L9.47306 15.1434L7.36834 14.6973L5.18986 17.9917L6.50618 19.6301L5.82151 20.6655L0 13.2888L0.72616 12.1906L10.1577 14.108ZM1.56897 13.4818L4.46329 17.0795L6.19916 14.4544L1.56897 13.4818Z" fill="white"/>
<path d="M9.54401 6.68959L10.2699 7.4624L8.99521 8.56567L11.3371 11.0589C11.5502 11.2858 11.7476 11.4096 11.9292 11.4304C12.1115 11.4394 12.3013 11.364 12.4988 11.2043C12.6905 11.0384 12.9211 10.8276 13.1907 10.572L13.8648 11.2896C13.2164 12.0176 12.625 12.4239 12.0904 12.5084C11.5623 12.5875 11.0333 12.3448 10.5032 11.7806L8.16139 9.28735L7.21257 10.1086L6.48668 9.33578L7.4355 8.51455L6.45037 7.46574L7.05951 6.50485L8.26932 7.79286L9.54401 6.68959Z" fill="white"/>
<path d="M15.5893 3.10585L16.1219 4.01215L14.627 4.82163L16.3453 7.74552C16.5017 8.01166 16.6661 8.17387 16.8387 8.23215C17.0145 8.27918 17.2169 8.24543 17.4459 8.13089C17.6707 8.00917 17.9437 7.85185 18.265 7.65893L18.7595 8.50049C17.9612 9.075 17.2916 9.34751 16.7508 9.318C16.2174 9.28443 15.7563 8.93678 15.3674 8.27503L13.6492 5.35113L12.5365 5.95368L12.0039 5.04738L13.1166 4.44483L12.3938 3.21485L13.2068 2.40482L14.0944 3.91532L15.5893 3.10585Z" fill="white"/>
<path d="M26.0054 3.7183L20.7756 5.03661C21.028 5.53652 21.3954 5.8879 21.8779 6.09074C22.3581 6.2856 22.8978 6.30752 23.4969 6.15649C24.3207 5.94884 24.8401 5.50627 25.055 4.82878L26.1163 5.09917C25.7475 6.15699 24.9556 6.83901 23.7407 7.14526C22.7589 7.39277 21.8709 7.30069 21.0768 6.86903C20.295 6.41719 19.7806 5.73997 19.5337 4.83738C19.2846 3.9268 19.3829 3.09941 19.8286 2.3552C20.2722 1.60302 20.9766 1.10526 21.9418 0.861947C22.8571 0.631216 23.6871 0.754999 24.4316 1.2333C25.1802 1.69352 25.6746 2.36295 25.915 3.24159C25.9565 3.39335 25.9866 3.55225 26.0054 3.7183ZM22.2106 1.84442C21.6364 1.98915 21.1964 2.26656 20.8905 2.67666C20.593 3.08467 20.4717 3.56779 20.5265 4.12603L24.6953 3.07515C24.453 2.54708 24.1073 2.17743 23.6582 1.9662C23.209 1.75496 22.7265 1.71437 22.2106 1.84442Z" fill="white"/>
<path d="M31.5861 0.0763724C32.3427 0.103028 32.94 0.355461 33.378 0.833674C33.8163 1.30363 34.0204 1.93062 33.9904 2.71464L33.8451 6.51507L32.7232 6.47554L32.8661 2.73701C32.8851 2.24184 32.758 1.84896 32.4851 1.55837C32.2121 1.26777 31.8263 1.11369 31.3276 1.09613C30.7516 1.07583 30.2893 1.23309 29.9408 1.56789C29.5925 1.89444 29.4055 2.39609 29.3796 3.07282L29.2542 6.35332L28.1322 6.31379L28.3689 0.124169L29.4908 0.163698L29.4567 1.055C29.9306 0.369263 30.6404 0.0430532 31.5861 0.0763724Z" fill="white"/>
<path d="M40.9733 2.14021L40.6597 3.13627L39.0168 2.65964L38.0051 5.87313C37.913 6.16562 37.9047 6.39183 37.9802 6.55177C38.0664 6.70618 38.2318 6.82318 38.4763 6.90276C38.7234 6.97443 39.0306 7.05492 39.3979 7.14423L39.1067 8.06915C38.1223 7.91298 37.4542 7.63719 37.1024 7.24179C36.7588 6.84878 36.7014 6.28863 36.9304 5.56135L37.9421 2.34786L36.7192 1.99308L37.0328 0.997016L38.2557 1.3518L38.6813 0L39.8531 0.00347386L39.3304 1.66358L40.9733 2.14021Z" fill="white"/>
<path d="M45.1768 2.8224C44.9864 2.72628 44.8606 2.58342 44.7992 2.39381C44.7379 2.2042 44.7553 2.02169 44.8514 1.84627C44.9475 1.67086 45.0943 1.55371 45.2919 1.49482C45.4934 1.42862 45.6893 1.44358 45.8797 1.5397C46.0624 1.63197 46.1825 1.77657 46.2398 1.97349C46.3012 2.1631 46.2838 2.34561 46.1876 2.52102C46.0915 2.69643 45.9447 2.81358 45.7472 2.87247C45.5496 2.93136 45.3595 2.91467 45.1768 2.8224ZM42.1173 9.54967L41.1236 9.04793L44.1275 3.5663L45.1212 4.06804L42.1173 9.54967Z" fill="white"/>
<path d="M49.2261 13.7973C48.3035 13.8562 47.4829 13.5837 46.7644 12.9799C46.0459 12.3761 45.656 11.6314 45.5947 10.7458C45.5334 9.86009 45.8172 9.07239 46.4462 8.38265C47.0752 7.69292 47.851 7.31862 48.7736 7.25978C49.6963 7.20093 50.5168 7.4734 51.2354 8.07719C51.9539 8.68098 52.3438 9.42571 52.4051 10.3114C52.4672 11.2087 52.1866 11.9991 51.5633 12.6826C50.94 13.3662 50.1609 13.7377 49.2261 13.7973ZM47.4869 12.1877C47.9724 12.5956 48.5247 12.7799 49.1438 12.7404C49.763 12.7009 50.2879 12.445 50.7185 11.9728C51.1492 11.5005 51.344 10.9672 51.3028 10.3729C51.2617 9.77857 50.9984 9.27743 50.5129 8.86946C50.0339 8.46693 49.4848 8.28541 48.8656 8.3249C48.2465 8.36439 47.7216 8.62026 47.291 9.09252C46.8603 9.56477 46.6655 10.0981 46.7067 10.6924C46.7478 11.2867 47.0079 11.7851 47.4869 12.1877Z" fill="white"/>
<path d="M57.5853 15.6258C57.9816 16.245 58.0939 16.8622 57.9221 17.4772C57.7576 18.0879 57.3272 18.5986 56.6308 19.0093L53.2552 21L52.6675 20.0817L55.9881 18.1234C56.4279 17.864 56.6981 17.5448 56.7987 17.1656C56.8994 16.7864 56.8191 16.3927 56.5579 15.9846C56.2561 15.5132 55.8635 15.231 55.38 15.1381C54.9038 15.041 54.3652 15.1696 53.7641 15.5241L50.8504 17.2425L50.2627 16.3242L55.7603 13.082L56.348 14.0002L55.5564 14.4671C56.4136 14.4656 57.0899 14.8518 57.5853 15.6258Z" fill="white"/>
</svg>
