<svg width="95" height="76" viewBox="0 0 95 76" fill="none" xmlns="http://www.w3.org/2000/svg">
<path d="M20.1303 42.8544L26.5101 41.0475L28.317 47.4272C28.3643 47.5941 28.5679 47.6767 28.772 47.6189L33.2229 46.3583C33.4269 46.3005 33.5571 46.1234 33.5072 45.9472L31.7029 39.5767L38.0827 37.7698C38.2496 37.7225 38.3321 37.5188 38.2743 37.3148L37.0137 32.8638C36.9559 32.6598 36.7788 32.5297 36.6026 32.5796L30.2321 34.3839L28.4252 28.0041C28.378 27.8372 28.1743 27.7547 27.9703 27.8125L23.5193 29.0731C23.3153 29.1309 23.1851 29.308 23.2324 29.4749L25.0393 35.8546L18.6596 37.6616C18.4927 37.7088 18.4101 37.9125 18.4679 38.1165L19.7285 42.5675C19.7863 42.7715 19.9634 42.9017 20.1303 42.8544ZM50.5454 34.24L68.4978 29.1554C68.6647 29.1081 68.7472 28.9044 68.6895 28.7004L67.4288 24.2494C67.371 24.0454 67.1939 23.9153 67.0178 23.9652L49.0747 29.0472C48.9078 29.0944 48.8252 29.2981 48.883 29.5021L50.1436 33.9531C50.2014 34.1571 50.3785 34.2873 50.5454 34.24ZM57.5052 58.8132L75.4576 53.7286C75.6245 53.6813 75.707 53.4776 75.6493 53.2736L74.3886 48.8226C74.3308 48.6186 74.1537 48.4885 73.9776 48.5384L56.0345 53.6204C55.8676 53.6676 55.785 53.8713 55.8428 54.0753L57.1034 58.5263C57.1612 58.7303 57.3383 58.8605 57.5052 58.8132ZM60.2366 68.457L78.189 63.3724C78.3559 63.3251 78.4384 63.1215 78.3806 62.9174L77.12 58.4665C77.0622 58.2625 76.8851 58.1323 76.7089 58.1822L58.7659 63.2642C58.599 63.3115 58.5164 63.5151 58.5742 63.7191L59.8348 68.1701C59.8926 68.3741 60.0697 68.5043 60.2366 68.457ZM39.9622 66.0857L43.6701 57.533C43.9323 56.9378 43.391 56.2998 42.779 56.4732L38.0683 57.8074C37.855 57.8678 37.6773 58.0183 37.5974 58.2312L35.5372 62.9817L31.2918 60.0171C31.2023 59.9542 31.1003 59.9114 30.9927 59.8918C30.8851 59.8721 30.7745 59.876 30.6685 59.9032L25.9486 61.24C25.3366 61.4133 25.2103 62.2404 25.7456 62.6097L33.3877 67.9478L29.5907 76.7161C29.3192 77.3138 29.8605 77.9518 30.4725 77.7785L35.1832 76.4443C35.3964 76.3839 35.5742 76.2334 35.6541 76.0205L37.8035 71.0544L42.2379 74.1558C42.4242 74.2833 42.6571 74.3275 42.8611 74.2697L47.5718 72.9355C48.1838 72.7622 48.3101 71.9351 47.7748 71.5658L39.9622 66.0857ZM71.2159 0.839477L2.96733 20.1693C1.32603 20.6342 0.375567 22.3358 0.840429 23.9771L20.1703 92.2257C20.6352 93.867 22.3367 94.8174 23.978 94.3526L92.2266 75.0227C93.8679 74.5578 94.8184 72.8562 94.3535 71.2149L75.0237 2.96638C74.5588 1.32507 72.8572 0.374615 71.2159 0.839477ZM87.1025 69.6626L25.5304 87.1015L8.09148 25.5294L69.6636 8.09053L87.1025 69.6626Z" fill="url(#paint0_linear_8155_174)"/>
<defs>
<linearGradient id="paint0_linear_8155_174" x1="1.28149e-06" y1="-0.000674718" x2="104.787" y2="94.9243" gradientUnits="userSpaceOnUse">
<stop stop-color="#8674F4"/>
<stop offset="0.0001" stop-color="#BCB1FF"/>
<stop offset="1" stop-color="#1D73EB"/>
</linearGradient>
</defs>
</svg>
