<svg width="402" height="419" viewBox="0 0 402 419" fill="none" xmlns="http://www.w3.org/2000/svg">
<ellipse cx="204.5" cy="376.5" rx="196.5" ry="42.5" fill="#DE5AE4"/>
<path d="M51.4605 267.311C51.4605 267.311 43.5993 247.313 76.0466 220.244L75.5717 264.99L51.4605 267.311Z" fill="#102048"/>
<path d="M50.4061 174.286C38.8517 150.752 29.4605 133.814 23.4986 136.452C21.9158 137.138 21.1772 139.196 21.652 140.99C24.7648 153.285 37.4799 176.132 37.4799 176.132L50.4061 174.286Z" fill="#F9B384"/>
<path d="M65.1253 207.951L44.8128 221.089C35.8964 217.079 28.1407 208.953 22.7592 193.915C22.0206 191.804 22.1789 189.43 23.2868 187.53L27.5076 180.248C29.0376 177.663 29.7235 174.655 29.5653 171.648L29.1432 162.888C29.0904 162.255 29.3542 161.622 29.7763 161.2L32.8891 157.981C33.4695 157.401 34.3136 157.348 34.9467 157.876L41.4889 163.258L40.2227 163.152C40.2227 163.152 41.2779 174.497 49.7195 175.077L54.0985 180.671L65.1253 207.951Z" fill="#F9B384"/>
<path d="M67.8687 206.209L65.1252 207.951L54.2567 180.618L49.8776 175.025C41.4361 174.444 40.3809 163.1 40.3809 163.1L41.6471 163.205L51.5659 163.786C54.3094 163.944 56.8947 165.157 58.8995 167.215L65.6528 174.18C66.9718 175.552 67.9214 177.188 68.449 179.088C71.1398 188.163 70.6122 197.186 67.8687 206.209Z" fill="#F9B384"/>
<path d="M80.0044 210.43L75.4143 253.857C75.4143 253.857 62.2771 264.252 61.644 265.307C61.3274 265.782 56.8429 255.123 51.8835 242.987C45.4995 227.421 38.377 209.375 38.377 209.375L66.8672 193.229L76.8916 206.262L80.0044 210.43Z" fill="#F9B384"/>
<path d="M80.0037 210.43L75.4137 253.857C75.4137 253.857 62.2765 264.252 61.6434 265.307C61.3268 265.782 56.8422 255.123 51.8828 242.987L76.8909 206.314L80.0037 210.43Z" fill="#E28B6D"/>
<path d="M54.6792 182.095C54.0461 181.356 51.1443 177.504 50.2474 176.29C40.2231 175.552 39.4317 163.257 39.4317 163.152L39.3789 162.149H40.3813C56.6313 161.78 60.0607 166.107 62.1184 168.745C62.4877 169.22 62.8042 169.589 63.068 169.853L61.749 171.33C61.327 170.961 60.9576 170.486 60.5356 169.959C58.6362 167.531 55.7872 163.943 41.4365 164.101C41.8586 166.845 43.5469 174.127 50.775 174.391H51.2498L51.5136 174.76C52.8854 176.554 55.5761 180.195 56.1565 180.828L54.6792 182.095Z" fill="#E28B6D"/>
<path d="M48.2953 185.314C47.2929 185.314 46.396 184.892 45.8156 184.417C44.4439 183.309 35.2637 176.08 35.2637 176.08L36.4771 174.55C36.4771 174.55 45.7101 181.832 47.0819 182.94C47.3984 183.203 48.137 183.573 48.9812 183.256C50.1419 182.781 51.0388 181.093 51.4081 178.402L53.3603 178.666C52.7271 183.045 51.0388 184.575 49.7198 185.05C49.1922 185.209 48.7174 185.314 48.2953 185.314Z" fill="#E28B6D"/>
<path d="M39.5379 163.574C38.6938 162.73 31.5712 161.675 30.1995 162.097L29.6719 160.197C31.4129 159.722 40.0655 160.619 41.2263 162.572L39.5379 163.574Z" fill="#E28B6D"/>
<path d="M47.8745 195.973C45.0255 195.973 41.4906 193.651 40.963 193.282L32.6797 187.847L33.7349 186.211L42.0182 191.646C44.1286 193.07 47.769 194.706 48.9297 193.651C49.3518 193.282 49.51 192.701 49.51 191.857C49.4573 189.43 47.5052 185.894 45.9224 184.575L47.1886 183.045C49.1407 184.681 51.4094 188.796 51.4622 191.804C51.5149 193.176 51.0401 194.337 50.2487 195.076C49.5628 195.762 48.7714 195.973 47.8745 195.973Z" fill="#E28B6D"/>
<path d="M41.8053 202.674C39.3783 202.674 36.4238 200.774 35.6851 200.299L28.4043 195.55L29.4595 193.915L36.7403 198.716C38.5869 199.93 41.6998 201.355 42.6494 200.51C42.966 200.194 43.1243 199.719 43.1243 199.033C43.0715 196.817 41.2249 193.704 40.0114 192.701L41.2777 191.171C43.0187 192.648 45.0236 196.289 45.0764 198.98C45.0764 200.247 44.7071 201.249 43.9684 201.935C43.3881 202.463 42.6494 202.674 41.8053 202.674Z" fill="#E28B6D"/>
<mask id="mask0_7466_162" style="mask-type:alpha" maskUnits="userSpaceOnUse" x="8" y="334" width="394" height="85">
<ellipse cx="204.502" cy="376.5" rx="196.5" ry="42.5" fill="#DE5AE4"/>
</mask>
<g mask="url(#mask0_7466_162)">
<path d="M219.713 321.608L216.284 417.325C216.231 419.911 216.126 422.497 216.02 425.029C214.226 477.584 210.85 528.029 206.101 576.837C200.72 632.083 193.703 685.166 185.419 736.665H131.077C123.849 621.847 111.661 483.969 134.031 359.23L147.644 325.882L219.713 321.608Z" fill="#1F3C88"/>
<path d="M294.421 364.612C308.033 478.587 319.851 606.228 314.628 725.215L255.643 736.665C239.551 637.413 211.377 509.772 207.79 394.689L199.928 301.188L288.354 325.935L294.421 364.612Z" fill="#1F3C88"/>
</g>
<path d="M226.466 87.1689H187.055V136.03H226.466V87.1689Z" fill="#F9B384"/>
<path d="M186.79 117.245C201.193 137.244 219.554 128.485 226.413 115.029L273.263 323.244C229.525 342.081 187.476 344.878 148.117 322.505L173.02 125.371L186.79 117.245Z" fill="white"/>
<path d="M248.202 56.9337C256.908 39.6792 258.86 13.0851 238.6 11.9771C220.978 -5.38297 192.488 -3.00849 175.974 15.0903C144.002 5.22301 139.253 63.8988 179.984 61.6299L248.202 56.9337Z" fill="#102048"/>
<path d="M187.055 87.1689V113.13C198.715 113.394 208.475 109.067 214.437 101.627C214.437 101.627 202.935 93.6064 193.913 87.1689H187.055Z" fill="#102048"/>
<path d="M242.821 39.7848L239.708 69.967C234.907 83.3168 229.051 92.7619 221.612 98.7244C213.961 104.898 204.043 106.85 194.915 104.054C187.107 101.679 180.723 95.8751 178.085 88.0129C176.66 83.6861 176.344 78.7789 177.61 73.4495C177.821 72.6053 177.979 71.761 178.032 70.9168C178.454 67.4342 178.085 63.9516 177.188 60.5746C175.341 53.504 175.236 46.1167 176.555 38.5184L211.904 27.332L242.821 39.7848Z" fill="#F9B384"/>
<path d="M173.705 402.604C155.397 406.614 133.977 406.245 110.129 402.604C115.986 349.363 124.005 298.233 136.351 251.376L84.9102 246.364C85.385 238.079 86.4929 229.531 88.1813 220.772C90.0806 210.905 92.8241 200.774 96.3062 190.432C96.4118 190.062 96.5701 189.693 96.6756 189.324C109.074 153.39 131.655 126.321 187.106 117.087C204.464 199.824 203.197 322.347 173.705 402.604Z" fill="#708CD5"/>
<path d="M306.239 333.639C309.352 352.318 312.095 370.997 314.944 390.415C297.164 396.747 275.691 399.069 251.052 397.961C240.764 364.824 233.747 330.262 229.737 294.539C229.737 294.381 229.737 294.275 229.684 294.17C223.353 237.394 219.238 177.451 226.466 115.082C249.153 116.718 272.42 123.63 294.21 137.613C301.702 142.415 307.716 149.485 311.779 157.822C326.973 189.166 334.096 216.762 339.952 245.256L292.258 264.621C293.629 270.425 294.948 276.177 296.215 281.875C300.119 299.499 303.337 316.543 306.239 333.639Z" fill="#708CD5"/>
<path d="M147.325 231.272L140.941 283.247L137.987 287.204L123.372 306.517C117.411 314.379 109.286 318.283 101.055 318.336C92.1915 318.389 83.3806 314.009 77.3132 305.145L51.4609 267.311C64.176 250.321 76.4163 233.014 79.9512 210.43C96.6233 229.9 101.583 237.182 101.583 237.182L147.325 231.272Z" fill="#708CD5"/>
<path d="M175.71 50.9183C188.795 50.2851 201.932 47.4885 215.069 40.6289C219.237 48.5966 229.051 59.0443 243.454 55.1396L245.037 46.4332L246.145 31.6587L202.723 17.7812L168.693 28.9677L175.71 50.9183Z" fill="#102048"/>
<path opacity="0.4" d="M306.238 333.638C278.539 330.947 252.212 318.178 229.736 294.539C229.631 294.433 229.525 294.328 229.42 294.222L229.684 294.169L296.267 281.875C300.118 299.499 303.336 316.542 306.238 333.638Z" fill="#1F3C88"/>
<path d="M80.7635 209.843L79.2266 211.047L107.724 247.438L109.261 246.234L80.7635 209.843Z" fill="#1F3C88"/>
<path opacity="0.4" d="M283.763 188.163L293.576 244.517C293.576 244.517 276.06 256.126 270.678 246.628C266.51 239.188 271.997 214.915 283.763 188.163Z" fill="#1F3C88"/>
<path d="M182.833 228.212L170.909 229.056C169.59 229.162 168.482 230.111 168.165 231.483L168.06 231.8C167.48 233.963 167.902 236.232 169.168 237.974L171.331 240.928C171.7 241.403 171.595 242.089 171.173 242.459C169.273 243.408 167.902 245.255 167.849 247.313C167.849 247.841 167.849 248.368 167.954 248.843C168.376 250.848 169.801 252.484 171.648 253.012L172.808 253.328C172.967 253.381 173.019 253.54 172.967 253.698L171.278 256.494C170.012 258.658 171.859 262.774 173.652 264.251C174.022 264.831 175.182 265.095 175.816 265.148L181.092 265.887C183.518 266.203 185.84 267.1 188.003 268.314C198.608 274.54 211.587 273.907 224.566 273.274L223.563 239.187C214.699 232.38 204.57 226.629 192.804 222.144L164.842 202.251C158.616 204.942 162.467 212.54 182.833 228.212Z" fill="#F9B384"/>
<path d="M339.951 245.255L344.066 262.668C349.448 285.252 332.512 306.781 311.25 304.301L210.373 292.059L218.076 234.544L339.951 245.255Z" fill="#708CD5"/>
<path d="M136.476 187.189L122.385 306.403L124.323 306.633L138.415 187.418L136.476 187.189Z" fill="#1F3C88"/>
<path d="M218.147 233.543L217.982 235.488L293.683 241.896L293.848 239.951L218.147 233.543Z" fill="#1F3C88"/>
<path d="M187.688 244.042C187.107 243.989 173.495 242.564 171.068 241.878L171.596 239.979C173.495 240.506 183.994 241.667 187.899 242.089L187.688 244.042Z" fill="#E28B6D"/>
<path d="M189.481 256.969C188.9 256.916 174.866 255.492 172.439 254.806L172.967 252.906C174.866 253.434 185.682 254.595 189.692 255.017L189.481 256.969Z" fill="#E28B6D"/>
<path d="M233.852 77.3015C258.543 80.9951 261.814 41.6844 235.593 57.4087L233.852 77.3015Z" fill="#F9B384"/>
<path d="M239.55 66.5898C239.233 65.3234 239.18 63.9515 239.444 62.6324C239.708 61.3132 240.394 59.9941 241.396 58.9388C242.399 57.9362 243.876 57.1975 245.406 57.303C246.936 57.3558 248.361 58.3056 248.941 59.5719L248.308 60.0468C247.411 59.2553 246.409 58.9388 245.406 59.0443C244.404 59.0971 243.507 59.6247 242.768 60.3634C242.03 61.1022 241.449 62.0519 241.027 63.1073C240.658 64.1626 240.447 65.3234 240.288 66.5898H239.55Z" fill="#E28B6D"/>
<path d="M191.644 61.3133C191.644 63.8461 190.219 65.9039 188.425 65.9039C186.632 65.9039 185.207 63.8461 185.207 61.3133C185.207 58.7805 186.632 56.7227 188.425 56.7227C190.219 56.7227 191.644 58.7805 191.644 61.3133Z" fill="#102048"/>
<path d="M215.702 58.8328C215.702 61.3656 214.278 63.4235 212.484 63.4235C210.69 63.4235 209.266 61.3656 209.266 58.8328C209.266 56.3001 210.69 54.2422 212.484 54.2422C214.278 54.2422 215.702 56.3001 215.702 58.8328Z" fill="#102048"/>
<path d="M201.721 57.4083C201.51 59.73 200.666 61.999 199.663 64.0568C198.714 66.1147 197.342 68.1198 196.392 69.9139C195.442 71.8134 195.179 73.5547 196.392 75.0849C197.553 76.6679 199.452 77.8815 201.299 79.2535L200.877 80.0449C198.819 79.2007 196.55 78.3564 194.809 76.4041C193.965 75.4543 193.332 74.0296 193.332 72.6049C193.332 71.233 193.807 69.9666 194.334 68.8586C195.495 66.6424 196.814 65.0066 197.922 63.0543C199.083 61.1547 200.138 59.2551 200.877 57.1973L201.721 57.4083Z" fill="#102048"/>
<path d="M194.492 86.8516L211.797 81.9443C211.797 81.9443 211.745 89.7537 203.461 91.6533C198.713 92.7086 194.492 86.8516 194.492 86.8516Z" fill="white"/>
<path opacity="0.4" d="M185.893 79.4651C185.893 83.9502 182.464 87.6438 178.084 88.0132C176.66 83.6864 176.343 78.7791 177.61 73.4498C177.821 72.6055 177.979 71.7612 178.032 70.917C182.464 71.2336 185.893 74.9272 185.893 79.4651Z" fill="#FC8879"/>
<path opacity="0.4" d="M231.613 74.6574C232.374 69.9686 229.19 65.5506 224.502 64.7897C219.814 64.0287 215.396 67.2129 214.636 71.9017C213.875 76.5905 217.058 81.0085 221.747 81.7695C226.435 82.5304 230.852 79.3463 231.613 74.6574Z" fill="#FC8879"/>
<path opacity="0.4" d="M125.641 292.27L123.372 306.517C117.41 314.379 109.285 318.284 101.055 318.337C109.127 285.358 128.331 261.561 128.331 261.561L125.641 292.27Z" fill="#1F3C88"/>
<path opacity="0.2" d="M108.23 246.522L88.1816 220.772C90.081 210.905 92.8245 200.773 96.3066 190.431C96.4122 190.062 96.5704 189.693 96.676 189.323C100.475 196.394 109.391 216.339 108.23 246.522Z" fill="#1F3C88"/>
<path d="M49.6262 68.278C49.6262 54.8227 37.9663 44.0584 24.1432 45.5886C13.8023 46.7495 5.41351 55.0337 4.14728 65.3231C3.25036 72.341 5.62455 78.8312 9.84533 83.5274C13.2219 87.221 14.9103 92.1282 14.9103 97.141C14.9103 103.684 20.239 108.961 26.7284 108.961C33.2707 108.961 38.5466 103.631 38.5466 97.141C38.5466 91.9699 40.6043 87.0627 43.9809 83.1052C47.5158 79.1478 49.6262 73.9767 49.6262 68.278Z" fill="#FBC343"/>
<path d="M26.7812 112.866C30.9493 112.866 34.3787 109.752 34.9063 105.742H18.6562C19.1838 109.752 22.6132 112.866 26.7812 112.866Z" fill="#102048"/>
<path opacity="0.8" d="M19.1622 64.9304C17.6849 69.0461 14.8359 71.8427 12.831 71.104C10.8261 70.3653 10.4041 66.4606 11.8813 62.2921C13.3586 58.1763 16.2076 55.3797 18.2125 56.1184C20.2174 56.8572 20.6394 60.8146 19.1622 64.9304Z" fill="white"/>
<path d="M27.5188 37.8324H26.9385C25.8305 37.8324 24.9336 36.9353 24.9336 35.8272V23.0051C24.9336 21.897 25.8305 21 26.9385 21H27.5188C28.6268 21 29.5237 21.897 29.5237 23.0051V35.8272C29.5237 36.8826 28.6268 37.8324 27.5188 37.8324Z" fill="#FBC343"/>
<path d="M9.8973 41.579L9.31694 41.9484C8.42003 42.5815 7.20656 42.3177 6.57344 41.4207L0.347787 32.1339C-0.28533 31.2369 -0.0215309 30.0232 0.875385 29.39L1.45574 29.0207C2.35266 28.3875 3.56613 28.6513 4.19925 29.5483L10.4777 38.8352C11.058 39.7322 10.7942 40.9458 9.8973 41.579Z" fill="#FBC343"/>
<path d="M43.8737 41.2089L44.454 41.5783C45.3509 42.1587 46.5644 41.9477 47.1975 41.0506L53.2649 32.0804C53.8453 31.1834 53.6342 29.9698 52.7373 29.3366L52.157 28.9672C51.26 28.3868 50.0466 28.5979 49.4135 29.4949L43.3461 38.4651C42.7657 39.4149 42.9768 40.6285 43.8737 41.2089Z" fill="#FBC343"/>
</svg>
