<svg width="39" height="92" viewBox="0 0 39 92" fill="none" xmlns="http://www.w3.org/2000/svg">
<path fill-rule="evenodd" clip-rule="evenodd" d="M28.7239 31.2656C27.5518 31.2656 26.6044 32.1727 26.6044 33.2903V87.062H22.3654V57.5866C22.3654 56.4689 21.418 55.5619 20.2459 55.5619C19.0738 55.5619 18.1264 56.4689 18.1264 57.5866V87.062H13.8874V33.2903C13.8874 32.1727 12.94 31.2656 11.7679 31.2656C10.5959 31.2656 9.64844 32.1727 9.64844 33.2903V89.9775C9.64844 91.1113 10.6086 91.1113 11.7806 91.1113H28.7366C29.9066 91.1113 30.8434 91.1113 30.8434 89.9775V33.2903C30.8434 32.1727 29.896 31.2656 28.7239 31.2656ZM21.0548 4.04883C24.4121 4.04883 27.1441 6.6608 27.1441 9.87211C27.1441 13.0814 24.4121 15.6934 21.0548 15.6934C17.6933 15.6934 14.957 13.0814 14.957 9.87211C14.957 6.6608 17.6933 4.04883 21.0548 4.04883ZM21.0555 19.7422C26.7485 19.7422 31.3838 15.3143 31.3838 9.87211C31.3838 4.42989 26.7485 0 21.0555 0C15.3541 0 10.7188 4.42989 10.7188 9.87211C10.7188 15.3143 15.3541 19.7422 21.0555 19.7422ZM36.3947 22.2715H2.2682C1.77436 22.2715 0.42156 22.2715 0.421547 24.2644L0.00328784 55.4121C0.00325547 56.5949 -0.0855916 58.3801 0.662589 59.2426C1.41077 60.1031 2.51302 60.5377 4.48342 59.2811L4.70651 26.3208H34.6655V57.5855C34.6655 58.7051 35.6129 59.6101 36.785 59.6101C37.9571 59.6101 38.9045 58.7051 38.9045 57.5855V25.191C38.9045 24.0734 38.9045 22.2715 36.3947 22.2715Z" fill="white"/>
</svg>
