<svg width="279" height="252" viewBox="0 0 279 252" fill="none" xmlns="http://www.w3.org/2000/svg">
<path fill-rule="evenodd" clip-rule="evenodd" d="M169.744 133.344C169.184 133.344 168.73 133.778 168.73 134.312V160.04H166.702V145.937C166.702 145.403 166.249 144.969 165.688 144.969C165.127 144.969 164.674 145.403 164.674 145.937V160.04H162.646V134.312C162.646 133.778 162.192 133.344 161.631 133.344C161.071 133.344 160.617 133.778 160.617 134.312V161.435C160.617 161.978 161.077 161.978 161.638 161.978H169.751C170.31 161.978 170.759 161.978 170.759 161.435V134.312C170.759 133.778 170.305 133.344 169.744 133.344ZM166.074 120.32C167.68 120.32 168.987 121.57 168.987 123.107C168.987 124.643 167.68 125.893 166.074 125.893C164.465 125.893 163.156 124.643 163.156 123.107C163.156 121.57 164.465 120.32 166.074 120.32ZM166.075 127.83C168.799 127.83 171.017 125.712 171.017 123.108C171.017 120.504 168.799 118.385 166.075 118.385C163.347 118.385 161.129 120.504 161.129 123.108C161.129 125.712 163.347 127.83 166.075 127.83ZM173.414 129.041H157.085C156.849 129.041 156.202 129.041 156.202 129.995L156.002 144.898C156.002 145.464 155.959 146.318 156.317 146.73C156.675 147.142 157.202 147.35 158.145 146.749L158.252 130.978H172.587V145.937C172.587 146.473 173.04 146.906 173.601 146.906C174.161 146.906 174.615 146.473 174.615 145.937V130.438C174.615 129.903 174.615 129.041 173.414 129.041Z" fill="white"/>
<circle cx="165.549" cy="100.323" r="8.37328" fill="white"/>
<circle cx="165.55" cy="100.323" r="2.6316" fill="#374FF2"/>
<path fill-rule="evenodd" clip-rule="evenodd" d="M65.7444 133.344C65.1836 133.344 64.7303 133.778 64.7303 134.312V160.04H62.7021V145.937C62.7021 145.403 62.2487 144.969 61.6879 144.969C61.1271 144.969 60.6738 145.403 60.6738 145.937V160.04H58.6456V134.312C58.6456 133.778 58.1922 133.344 57.6314 133.344C57.0706 133.344 56.6173 133.778 56.6173 134.312V161.435C56.6173 161.978 57.0767 161.978 57.6375 161.978H65.7505C66.3103 161.978 66.7585 161.978 66.7585 161.435V134.312C66.7585 133.778 66.3052 133.344 65.7444 133.344ZM62.0739 120.32C63.6802 120.32 64.9874 121.57 64.9874 123.107C64.9874 124.643 63.6802 125.893 62.0739 125.893C60.4655 125.893 59.1562 124.643 59.1562 123.107C59.1562 121.57 60.4655 120.32 62.0739 120.32ZM62.0748 127.83C64.7987 127.83 67.0166 125.712 67.0166 123.108C67.0166 120.504 64.7987 118.385 62.0748 118.385C59.3468 118.385 57.1289 120.504 57.1289 123.108C57.1289 125.712 59.3468 127.83 62.0748 127.83ZM69.4139 129.041H53.0853C52.849 129.041 52.2017 129.041 52.2017 129.995L52.0016 144.898C52.0016 145.464 51.959 146.318 52.317 146.73C52.675 147.142 53.2024 147.35 54.1452 146.749L54.2519 130.978H68.5865V145.937C68.5865 146.473 69.0398 146.906 69.6006 146.906C70.1614 146.906 70.6147 146.473 70.6147 145.937V130.438C70.6147 129.903 70.6147 129.041 69.4139 129.041Z" fill="white"/>
<circle cx="61.5491" cy="100.323" r="8.37328" fill="white"/>
<circle cx="61.5496" cy="100.323" r="2.6316" fill="#374FF2"/>
<path fill-rule="evenodd" clip-rule="evenodd" d="M169.744 41.9609C169.183 41.9609 168.73 42.3949 168.73 42.9297V68.6582H166.702V54.5549C166.702 54.0201 166.249 53.5861 165.688 53.5861C165.127 53.5861 164.674 54.0201 164.674 54.5549V68.6582H162.645V42.9297C162.645 42.3949 162.192 41.9609 161.631 41.9609C161.071 41.9609 160.617 42.3949 160.617 42.9297V70.0532C160.617 70.5957 161.077 70.5957 161.637 70.5957H169.75C170.31 70.5957 170.758 70.5957 170.758 70.0532V42.9297C170.758 42.3949 170.305 41.9609 169.744 41.9609ZM166.074 28.9375C167.68 28.9375 168.987 30.1874 168.987 31.7241C168.987 33.2599 167.68 34.5098 166.074 34.5098C164.465 34.5098 163.156 33.2599 163.156 31.7241C163.156 30.1874 164.465 28.9375 166.074 28.9375ZM166.075 36.4463C168.799 36.4463 171.017 34.3276 171.017 31.7236C171.017 29.1196 168.799 27 166.075 27C163.347 27 161.129 29.1196 161.129 31.7236C161.129 34.3276 163.347 36.4463 166.075 36.4463ZM173.414 37.6562H157.085C156.849 37.6562 156.202 37.6562 156.202 38.6098L156.002 53.5137C156.002 54.0796 155.959 54.9338 156.317 55.3465C156.675 55.7582 157.202 55.9662 158.145 55.3649L158.252 39.5938H172.587V54.5536C172.587 55.0893 173.04 55.5224 173.601 55.5224C174.161 55.5224 174.615 55.0893 174.615 54.5536V39.0532C174.615 38.5185 174.615 37.6562 173.414 37.6562Z" fill="white"/>
<circle cx="166.549" cy="8.37328" r="8.37328" fill="white"/>
<circle cx="166.55" cy="8.37379" r="2.6316" fill="#374FF2"/>
<path fill-rule="evenodd" clip-rule="evenodd" d="M65.7443 41.9609C65.1835 41.9609 64.7302 42.3949 64.7302 42.9297V68.6582H62.7019V54.5549C62.7019 54.0201 62.2486 53.5861 61.6878 53.5861C61.127 53.5861 60.6737 54.0201 60.6737 54.5549V68.6582H58.6454V42.9297C58.6454 42.3949 58.1921 41.9609 57.6313 41.9609C57.0705 41.9609 56.6172 42.3949 56.6172 42.9297V70.0532C56.6172 70.5957 57.0766 70.5957 57.6374 70.5957H65.7504C66.3102 70.5957 66.7584 70.5957 66.7584 70.0532V42.9297C66.7584 42.3949 66.3051 41.9609 65.7443 41.9609ZM62.0739 28.9375C63.6802 28.9375 64.9874 30.1874 64.9874 31.7241C64.9874 33.2599 63.6802 34.5098 62.0739 34.5098C60.4655 34.5098 59.1562 33.2599 59.1562 31.7241C59.1562 30.1874 60.4655 28.9375 62.0739 28.9375ZM62.0748 36.4463C64.7987 36.4463 67.0166 34.3276 67.0166 31.7236C67.0166 29.1196 64.7987 27 62.0748 27C59.3468 27 57.1289 29.1196 57.1289 31.7236C57.1289 34.3276 59.3468 36.4463 62.0748 36.4463ZM69.4139 37.6562H53.0853C52.849 37.6562 52.2017 37.6562 52.2017 38.6098L52.0016 53.5137C52.0016 54.0796 51.959 54.9338 52.317 55.3465C52.675 55.7582 53.2024 55.9662 54.1452 55.3649L54.2519 39.5938H68.5865V54.5536C68.5865 55.0893 69.0398 55.5224 69.6006 55.5224C70.1614 55.5224 70.6147 55.0893 70.6147 54.5536V39.0532C70.6147 38.5185 70.6147 37.6562 69.4139 37.6562Z" fill="white"/>
<circle cx="62.5491" cy="8.37328" r="8.37328" fill="white"/>
<circle cx="62.5496" cy="8.37379" r="2.6316" fill="#374FF2"/>
<path fill-rule="evenodd" clip-rule="evenodd" d="M117.744 133.344C117.184 133.344 116.73 133.778 116.73 134.312V160.04H114.702V145.937C114.702 145.403 114.249 144.969 113.688 144.969C113.127 144.969 112.674 145.403 112.674 145.937V160.04H110.646V134.312C110.646 133.778 110.192 133.344 109.631 133.344C109.071 133.344 108.617 133.778 108.617 134.312V161.435C108.617 161.978 109.077 161.978 109.638 161.978H117.751C118.31 161.978 118.759 161.978 118.759 161.435V134.312C118.759 133.778 118.305 133.344 117.744 133.344ZM114.074 120.32C115.68 120.32 116.987 121.57 116.987 123.107C116.987 124.643 115.68 125.893 114.074 125.893C112.465 125.893 111.156 124.643 111.156 123.107C111.156 121.57 112.465 120.32 114.074 120.32ZM114.075 127.83C116.799 127.83 119.017 125.712 119.017 123.108C119.017 120.504 116.799 118.385 114.075 118.385C111.347 118.385 109.129 120.504 109.129 123.108C109.129 125.712 111.347 127.83 114.075 127.83ZM121.414 129.041H105.085C104.849 129.041 104.202 129.041 104.202 129.995L104.002 144.898C104.002 145.464 103.959 146.318 104.317 146.73C104.675 147.142 105.202 147.35 106.145 146.749L106.252 130.978H120.587V145.937C120.587 146.473 121.04 146.906 121.601 146.906C122.161 146.906 122.615 146.473 122.615 145.937V130.438C122.615 129.903 122.615 129.041 121.414 129.041Z" fill="white"/>
<circle cx="113.549" cy="100.323" r="8.37328" fill="white"/>
<circle cx="113.55" cy="100.323" r="2.6316" fill="#374FF2"/>
<path fill-rule="evenodd" clip-rule="evenodd" d="M13.7444 133.344C13.1836 133.344 12.7303 133.778 12.7303 134.312V160.04H10.7021V145.937C10.7021 145.403 10.2487 144.969 9.68793 144.969C9.12712 144.969 8.6738 145.403 8.6738 145.937V160.04H6.64556V134.312C6.64556 133.778 6.19224 133.344 5.63143 133.344C5.07062 133.344 4.61731 133.778 4.61731 134.312V161.435C4.61731 161.978 5.07671 161.978 5.63752 161.978H13.7505C14.3103 161.978 14.7585 161.978 14.7585 161.435V134.312C14.7585 133.778 14.3052 133.344 13.7444 133.344ZM10.0739 120.32C11.6802 120.32 12.9874 121.57 12.9874 123.107C12.9874 124.643 11.6802 125.893 10.0739 125.893C8.46548 125.893 7.15625 124.643 7.15625 123.107C7.15625 121.57 8.46548 120.32 10.0739 120.32ZM10.0748 127.83C12.7987 127.83 15.0166 125.712 15.0166 123.108C15.0166 120.504 12.7987 118.385 10.0748 118.385C7.34679 118.385 5.12891 120.504 5.12891 123.108C5.12891 125.712 7.34679 127.83 10.0748 127.83ZM17.4139 129.041H1.08527C0.848984 129.041 0.201705 129.041 0.201699 129.995L0.00157314 144.898C0.00155765 145.464 -0.0409533 146.318 0.317031 146.73C0.675015 147.142 1.20241 147.35 2.14519 146.749L2.25194 130.978H16.5865V145.937C16.5865 146.473 17.0398 146.906 17.6006 146.906C18.1614 146.906 18.6147 146.473 18.6147 145.937V130.438C18.6147 129.903 18.6147 129.041 17.4139 129.041Z" fill="white"/>
<circle cx="9.37328" cy="100.323" r="8.37328" fill="white"/>
<circle cx="9.37379" cy="100.323" r="2.6316" fill="#374FF2"/>
<path fill-rule="evenodd" clip-rule="evenodd" d="M117.744 41.9609C117.183 41.9609 116.73 42.3949 116.73 42.9297V68.6582H114.702V54.5549C114.702 54.0201 114.249 53.5861 113.688 53.5861C113.127 53.5861 112.674 54.0201 112.674 54.5549V68.6582H110.645V42.9297C110.645 42.3949 110.192 41.9609 109.631 41.9609C109.071 41.9609 108.617 42.3949 108.617 42.9297V70.0532C108.617 70.5957 109.077 70.5957 109.637 70.5957H117.75C118.31 70.5957 118.758 70.5957 118.758 70.0532V42.9297C118.758 42.3949 118.305 41.9609 117.744 41.9609ZM114.074 28.9375C115.68 28.9375 116.987 30.1874 116.987 31.7241C116.987 33.2599 115.68 34.5098 114.074 34.5098C112.465 34.5098 111.156 33.2599 111.156 31.7241C111.156 30.1874 112.465 28.9375 114.074 28.9375ZM114.075 36.4463C116.799 36.4463 119.017 34.3276 119.017 31.7236C119.017 29.1196 116.799 27 114.075 27C111.347 27 109.129 29.1196 109.129 31.7236C109.129 34.3276 111.347 36.4463 114.075 36.4463ZM121.414 37.6562H105.085C104.849 37.6562 104.202 37.6562 104.202 38.6098L104.002 53.5137C104.002 54.0796 103.959 54.9338 104.317 55.3465C104.675 55.7582 105.202 55.9662 106.145 55.3649L106.252 39.5938H120.587V54.5536C120.587 55.0893 121.04 55.5224 121.601 55.5224C122.161 55.5224 122.615 55.0893 122.615 54.5536V39.0532C122.615 38.5185 122.615 37.6562 121.414 37.6562Z" fill="white"/>
<circle cx="114.549" cy="8.37328" r="8.37328" fill="white"/>
<circle cx="114.55" cy="8.37379" r="2.6316" fill="#374FF2"/>
<path fill-rule="evenodd" clip-rule="evenodd" d="M13.7443 41.9609C13.1835 41.9609 12.7302 42.3949 12.7302 42.9297V68.6582H10.7019V54.5549C10.7019 54.0201 10.2486 53.5861 9.68781 53.5861C9.127 53.5861 8.67368 54.0201 8.67368 54.5549V68.6582H6.64543V42.9297C6.64543 42.3949 6.19212 41.9609 5.63131 41.9609C5.0705 41.9609 4.61719 42.3949 4.61719 42.9297V70.0532C4.61719 70.5957 5.07659 70.5957 5.6374 70.5957H13.7504C14.3102 70.5957 14.7584 70.5957 14.7584 70.0532V42.9297C14.7584 42.3949 14.3051 41.9609 13.7443 41.9609ZM10.0739 28.9375C11.6802 28.9375 12.9874 30.1874 12.9874 31.7241C12.9874 33.2599 11.6802 34.5098 10.0739 34.5098C8.46548 34.5098 7.15625 33.2599 7.15625 31.7241C7.15625 30.1874 8.46548 28.9375 10.0739 28.9375ZM10.0748 36.4463C12.7987 36.4463 15.0166 34.3276 15.0166 31.7236C15.0166 29.1196 12.7987 27 10.0748 27C7.34679 27 5.12891 29.1196 5.12891 31.7236C5.12891 34.3276 7.34679 36.4463 10.0748 36.4463ZM17.4139 37.6562H1.08527C0.848984 37.6562 0.201705 37.6562 0.201699 38.6098L0.00157314 53.5137C0.00155765 54.0796 -0.0409533 54.9338 0.317031 55.3465C0.675015 55.7582 1.20241 55.9662 2.14519 55.3649L2.25194 39.5938H16.5865V54.5536C16.5865 55.0893 17.0398 55.5224 17.6006 55.5224C18.1614 55.5224 18.6147 55.0893 18.6147 54.5536V39.0532C18.6147 38.5185 18.6147 37.6562 17.4139 37.6562Z" fill="white"/>
<circle cx="9.37328" cy="8.37328" r="8.37328" fill="white"/>
<circle cx="9.37379" cy="8.37379" r="2.6316" fill="#374FF2"/>
<path fill-rule="evenodd" clip-rule="evenodd" d="M221.744 133.344C221.184 133.344 220.73 133.778 220.73 134.312V160.04H218.702V145.937C218.702 145.403 218.249 144.969 217.688 144.969C217.127 144.969 216.674 145.403 216.674 145.937V160.04H214.646V134.312C214.646 133.778 214.192 133.344 213.631 133.344C213.071 133.344 212.617 133.778 212.617 134.312V161.435C212.617 161.978 213.077 161.978 213.638 161.978H221.751C222.31 161.978 222.759 161.978 222.759 161.435V134.312C222.759 133.778 222.305 133.344 221.744 133.344ZM218.074 120.32C219.68 120.32 220.987 121.57 220.987 123.107C220.987 124.643 219.68 125.893 218.074 125.893C216.465 125.893 215.156 124.643 215.156 123.107C215.156 121.57 216.465 120.32 218.074 120.32ZM218.075 127.83C220.799 127.83 223.017 125.712 223.017 123.108C223.017 120.504 220.799 118.385 218.075 118.385C215.347 118.385 213.129 120.504 213.129 123.108C213.129 125.712 215.347 127.83 218.075 127.83ZM225.414 129.041H209.085C208.849 129.041 208.202 129.041 208.202 129.995L208.002 144.898C208.002 145.464 207.959 146.318 208.317 146.73C208.675 147.142 209.202 147.35 210.145 146.749L210.252 130.978H224.587V145.937C224.587 146.473 225.04 146.906 225.601 146.906C226.161 146.906 226.615 146.473 226.615 145.937V130.438C226.615 129.903 226.615 129.041 225.414 129.041Z" fill="white"/>
<circle cx="217.549" cy="100.323" r="8.37328" fill="white"/>
<circle cx="217.55" cy="100.323" r="2.6316" fill="#374FF2"/>
<path fill-rule="evenodd" clip-rule="evenodd" d="M221.744 41.9609C221.183 41.9609 220.73 42.3949 220.73 42.9297V68.6582H218.702V54.5549C218.702 54.0201 218.249 53.5861 217.688 53.5861C217.127 53.5861 216.674 54.0201 216.674 54.5549V68.6582H214.645V42.9297C214.645 42.3949 214.192 41.9609 213.631 41.9609C213.071 41.9609 212.617 42.3949 212.617 42.9297V70.0532C212.617 70.5957 213.077 70.5957 213.637 70.5957H221.75C222.31 70.5957 222.758 70.5957 222.758 70.0532V42.9297C222.758 42.3949 222.305 41.9609 221.744 41.9609ZM218.074 28.9375C219.68 28.9375 220.987 30.1874 220.987 31.7241C220.987 33.2599 219.68 34.5098 218.074 34.5098C216.465 34.5098 215.156 33.2599 215.156 31.7241C215.156 30.1874 216.465 28.9375 218.074 28.9375ZM218.075 36.4463C220.799 36.4463 223.017 34.3276 223.017 31.7236C223.017 29.1196 220.799 27 218.075 27C215.347 27 213.129 29.1196 213.129 31.7236C213.129 34.3276 215.347 36.4463 218.075 36.4463ZM225.414 37.6562H209.085C208.849 37.6562 208.202 37.6562 208.202 38.6098L208.002 53.5137C208.002 54.0796 207.959 54.9338 208.317 55.3465C208.675 55.7582 209.202 55.9662 210.145 55.3649L210.252 39.5938H224.587V54.5536C224.587 55.0893 225.04 55.5224 225.601 55.5224C226.161 55.5224 226.615 55.0893 226.615 54.5536V39.0532C226.615 38.5185 226.615 37.6562 225.414 37.6562Z" fill="white"/>
<circle cx="218.549" cy="8.37328" r="8.37328" fill="white"/>
<circle cx="218.55" cy="8.37379" r="2.6316" fill="#374FF2"/>
<path fill-rule="evenodd" clip-rule="evenodd" d="M273.744 133.344C273.184 133.344 272.73 133.778 272.73 134.312V160.04H270.702V145.937C270.702 145.403 270.249 144.969 269.688 144.969C269.127 144.969 268.674 145.403 268.674 145.937V160.04H266.646V134.312C266.646 133.778 266.192 133.344 265.631 133.344C265.071 133.344 264.617 133.778 264.617 134.312V161.435C264.617 161.978 265.077 161.978 265.638 161.978H273.751C274.31 161.978 274.759 161.978 274.759 161.435V134.312C274.759 133.778 274.305 133.344 273.744 133.344ZM270.074 120.32C271.68 120.32 272.987 121.57 272.987 123.107C272.987 124.643 271.68 125.893 270.074 125.893C268.465 125.893 267.156 124.643 267.156 123.107C267.156 121.57 268.465 120.32 270.074 120.32ZM270.075 127.83C272.799 127.83 275.017 125.712 275.017 123.108C275.017 120.504 272.799 118.385 270.075 118.385C267.347 118.385 265.129 120.504 265.129 123.108C265.129 125.712 267.347 127.83 270.075 127.83ZM277.414 129.041H261.085C260.849 129.041 260.202 129.041 260.202 129.995L260.002 144.898C260.002 145.464 259.959 146.318 260.317 146.73C260.675 147.142 261.202 147.35 262.145 146.749L262.252 130.978H276.587V145.937C276.587 146.473 277.04 146.906 277.601 146.906C278.161 146.906 278.615 146.473 278.615 145.937V130.438C278.615 129.903 278.615 129.041 277.414 129.041Z" fill="white"/>
<circle cx="269.549" cy="100.323" r="8.37328" fill="white"/>
<circle cx="269.55" cy="100.323" r="2.6316" fill="#374FF2"/>
<path fill-rule="evenodd" clip-rule="evenodd" d="M273.744 41.9609C273.183 41.9609 272.73 42.3949 272.73 42.9297V68.6582H270.702V54.5549C270.702 54.0201 270.249 53.5861 269.688 53.5861C269.127 53.5861 268.674 54.0201 268.674 54.5549V68.6582H266.645V42.9297C266.645 42.3949 266.192 41.9609 265.631 41.9609C265.071 41.9609 264.617 42.3949 264.617 42.9297V70.0532C264.617 70.5957 265.077 70.5957 265.637 70.5957H273.75C274.31 70.5957 274.758 70.5957 274.758 70.0532V42.9297C274.758 42.3949 274.305 41.9609 273.744 41.9609ZM270.074 28.9375C271.68 28.9375 272.987 30.1874 272.987 31.7241C272.987 33.2599 271.68 34.5098 270.074 34.5098C268.465 34.5098 267.156 33.2599 267.156 31.7241C267.156 30.1874 268.465 28.9375 270.074 28.9375ZM270.075 36.4463C272.799 36.4463 275.017 34.3276 275.017 31.7236C275.017 29.1196 272.799 27 270.075 27C267.347 27 265.129 29.1196 265.129 31.7236C265.129 34.3276 267.347 36.4463 270.075 36.4463ZM277.414 37.6562H261.085C260.849 37.6562 260.202 37.6562 260.202 38.6098L260.002 53.5137C260.002 54.0796 259.959 54.9338 260.317 55.3465C260.675 55.7582 261.202 55.9662 262.145 55.3649L262.252 39.5938H276.587V54.5536C276.587 55.0893 277.04 55.5224 277.601 55.5224C278.161 55.5224 278.615 55.0893 278.615 54.5536V39.0532C278.615 38.5185 278.615 37.6562 277.414 37.6562Z" fill="white"/>
<circle cx="270.549" cy="8.37328" r="8.37328" fill="white"/>
<circle cx="270.55" cy="8.37379" r="2.6316" fill="#374FF2"/>
<path fill-rule="evenodd" clip-rule="evenodd" d="M169.744 222.949C169.183 222.949 168.73 223.383 168.73 223.918V249.646H166.702V235.543C166.702 235.008 166.249 234.574 165.688 234.574C165.127 234.574 164.674 235.008 164.674 235.543V249.646H162.645V223.918C162.645 223.383 162.192 222.949 161.631 222.949C161.071 222.949 160.617 223.383 160.617 223.918V251.041C160.617 251.584 161.077 251.584 161.637 251.584H169.75C170.31 251.584 170.758 251.584 170.758 251.041V223.918C170.758 223.383 170.305 222.949 169.744 222.949ZM166.074 209.926C167.68 209.926 168.987 211.175 168.987 212.712C168.987 214.247 167.68 215.497 166.074 215.497C164.465 215.497 163.156 214.247 163.156 212.712C163.156 211.175 164.465 209.926 166.074 209.926ZM166.075 217.435C168.799 217.435 171.017 215.316 171.017 212.712C171.017 210.108 168.799 207.988 166.075 207.988C163.347 207.988 161.129 210.108 161.129 212.712C161.129 215.316 163.347 217.435 166.075 217.435ZM173.414 218.645H157.085C156.849 218.645 156.202 218.645 156.202 219.598L156.002 234.502C156.002 235.068 155.959 235.922 156.317 236.335C156.675 236.747 157.202 236.954 158.145 236.353L158.252 220.582H172.587V235.542C172.587 236.078 173.04 236.511 173.601 236.511C174.161 236.511 174.615 236.078 174.615 235.542V220.042C174.615 219.507 174.615 218.645 173.414 218.645Z" fill="white"/>
<circle cx="166.549" cy="189.385" r="8.37328" fill="white"/>
<circle cx="166.55" cy="189.386" r="2.6316" fill="#374FF2"/>
<path fill-rule="evenodd" clip-rule="evenodd" d="M65.7443 222.949C65.1835 222.949 64.7302 223.383 64.7302 223.918V249.646H62.7019V235.543C62.7019 235.008 62.2486 234.574 61.6878 234.574C61.127 234.574 60.6737 235.008 60.6737 235.543V249.646H58.6454V223.918C58.6454 223.383 58.1921 222.949 57.6313 222.949C57.0705 222.949 56.6172 223.383 56.6172 223.918V251.041C56.6172 251.584 57.0766 251.584 57.6374 251.584H65.7504C66.3102 251.584 66.7584 251.584 66.7584 251.041V223.918C66.7584 223.383 66.3051 222.949 65.7443 222.949ZM62.0739 209.926C63.6802 209.926 64.9874 211.175 64.9874 212.712C64.9874 214.247 63.6802 215.497 62.0739 215.497C60.4655 215.497 59.1562 214.247 59.1562 212.712C59.1562 211.175 60.4655 209.926 62.0739 209.926ZM62.0748 217.435C64.7987 217.435 67.0166 215.316 67.0166 212.712C67.0166 210.108 64.7987 207.988 62.0748 207.988C59.3468 207.988 57.1289 210.108 57.1289 212.712C57.1289 215.316 59.3468 217.435 62.0748 217.435ZM69.4139 218.645H53.0853C52.849 218.645 52.2017 218.645 52.2017 219.598L52.0016 234.502C52.0016 235.068 51.959 235.922 52.317 236.335C52.675 236.747 53.2024 236.954 54.1452 236.353L54.2519 220.582H68.5865V235.542C68.5865 236.078 69.0398 236.511 69.6006 236.511C70.1614 236.511 70.6147 236.078 70.6147 235.542V220.042C70.6147 219.507 70.6147 218.645 69.4139 218.645Z" fill="white"/>
<circle cx="62.5491" cy="189.385" r="8.37328" fill="white"/>
<circle cx="62.5496" cy="189.386" r="2.6316" fill="#374FF2"/>
<path fill-rule="evenodd" clip-rule="evenodd" d="M117.744 222.949C117.183 222.949 116.73 223.383 116.73 223.918V249.646H114.702V235.543C114.702 235.008 114.249 234.574 113.688 234.574C113.127 234.574 112.674 235.008 112.674 235.543V249.646H110.645V223.918C110.645 223.383 110.192 222.949 109.631 222.949C109.071 222.949 108.617 223.383 108.617 223.918V251.041C108.617 251.584 109.077 251.584 109.637 251.584H117.75C118.31 251.584 118.758 251.584 118.758 251.041V223.918C118.758 223.383 118.305 222.949 117.744 222.949ZM114.074 209.926C115.68 209.926 116.987 211.175 116.987 212.712C116.987 214.247 115.68 215.497 114.074 215.497C112.465 215.497 111.156 214.247 111.156 212.712C111.156 211.175 112.465 209.926 114.074 209.926ZM114.075 217.435C116.799 217.435 119.017 215.316 119.017 212.712C119.017 210.108 116.799 207.988 114.075 207.988C111.347 207.988 109.129 210.108 109.129 212.712C109.129 215.316 111.347 217.435 114.075 217.435ZM121.414 218.645H105.085C104.849 218.645 104.202 218.645 104.202 219.598L104.002 234.502C104.002 235.068 103.959 235.922 104.317 236.335C104.675 236.747 105.202 236.954 106.145 236.353L106.252 220.582H120.587V235.542C120.587 236.078 121.04 236.511 121.601 236.511C122.161 236.511 122.615 236.078 122.615 235.542V220.042C122.615 219.507 122.615 218.645 121.414 218.645Z" fill="white"/>
<circle cx="114.549" cy="189.385" r="8.37328" fill="white"/>
<circle cx="114.55" cy="189.386" r="2.6316" fill="#374FF2"/>
<path fill-rule="evenodd" clip-rule="evenodd" d="M13.7443 222.949C13.1835 222.949 12.7302 223.383 12.7302 223.918V249.646H10.7019V235.543C10.7019 235.008 10.2486 234.574 9.68781 234.574C9.127 234.574 8.67368 235.008 8.67368 235.543V249.646H6.64543V223.918C6.64543 223.383 6.19212 222.949 5.63131 222.949C5.0705 222.949 4.61719 223.383 4.61719 223.918V251.041C4.61719 251.584 5.07659 251.584 5.6374 251.584H13.7504C14.3102 251.584 14.7584 251.584 14.7584 251.041V223.918C14.7584 223.383 14.3051 222.949 13.7443 222.949ZM10.0739 209.926C11.6802 209.926 12.9874 211.175 12.9874 212.712C12.9874 214.247 11.6802 215.497 10.0739 215.497C8.46548 215.497 7.15625 214.247 7.15625 212.712C7.15625 211.175 8.46548 209.926 10.0739 209.926ZM10.0748 217.435C12.7987 217.435 15.0166 215.316 15.0166 212.712C15.0166 210.108 12.7987 207.988 10.0748 207.988C7.34679 207.988 5.12891 210.108 5.12891 212.712C5.12891 215.316 7.34679 217.435 10.0748 217.435ZM17.4139 218.645H1.08527C0.848984 218.645 0.201705 218.645 0.201699 219.598L0.00157314 234.502C0.00155765 235.068 -0.0409533 235.922 0.317031 236.335C0.675015 236.747 1.20241 236.954 2.14519 236.353L2.25194 220.582H16.5865V235.542C16.5865 236.078 17.0398 236.511 17.6006 236.511C18.1614 236.511 18.6147 236.078 18.6147 235.542V220.042C18.6147 219.507 18.6147 218.645 17.4139 218.645Z" fill="white"/>
<circle cx="9.37328" cy="189.385" r="8.37328" fill="white"/>
<circle cx="9.37379" cy="189.386" r="2.6316" fill="#374FF2"/>
<path fill-rule="evenodd" clip-rule="evenodd" d="M221.744 222.949C221.183 222.949 220.73 223.383 220.73 223.918V249.646H218.702V235.543C218.702 235.008 218.249 234.574 217.688 234.574C217.127 234.574 216.674 235.008 216.674 235.543V249.646H214.645V223.918C214.645 223.383 214.192 222.949 213.631 222.949C213.071 222.949 212.617 223.383 212.617 223.918V251.041C212.617 251.584 213.077 251.584 213.637 251.584H221.75C222.31 251.584 222.758 251.584 222.758 251.041V223.918C222.758 223.383 222.305 222.949 221.744 222.949ZM218.074 209.926C219.68 209.926 220.987 211.175 220.987 212.712C220.987 214.247 219.68 215.497 218.074 215.497C216.465 215.497 215.156 214.247 215.156 212.712C215.156 211.175 216.465 209.926 218.074 209.926ZM218.075 217.435C220.799 217.435 223.017 215.316 223.017 212.712C223.017 210.108 220.799 207.988 218.075 207.988C215.347 207.988 213.129 210.108 213.129 212.712C213.129 215.316 215.347 217.435 218.075 217.435ZM225.414 218.645H209.085C208.849 218.645 208.202 218.645 208.202 219.598L208.002 234.502C208.002 235.068 207.959 235.922 208.317 236.335C208.675 236.747 209.202 236.954 210.145 236.353L210.252 220.582H224.587V235.542C224.587 236.078 225.04 236.511 225.601 236.511C226.161 236.511 226.615 236.078 226.615 235.542V220.042C226.615 219.507 226.615 218.645 225.414 218.645Z" fill="white"/>
<circle cx="218.549" cy="189.385" r="8.37328" fill="white"/>
<circle cx="218.55" cy="189.386" r="2.6316" fill="#374FF2"/>
<path fill-rule="evenodd" clip-rule="evenodd" d="M273.744 222.949C273.183 222.949 272.73 223.383 272.73 223.918V249.646H270.702V235.543C270.702 235.008 270.249 234.574 269.688 234.574C269.127 234.574 268.674 235.008 268.674 235.543V249.646H266.645V223.918C266.645 223.383 266.192 222.949 265.631 222.949C265.071 222.949 264.617 223.383 264.617 223.918V251.041C264.617 251.584 265.077 251.584 265.637 251.584H273.75C274.31 251.584 274.758 251.584 274.758 251.041V223.918C274.758 223.383 274.305 222.949 273.744 222.949ZM270.074 209.926C271.68 209.926 272.987 211.175 272.987 212.712C272.987 214.247 271.68 215.497 270.074 215.497C268.465 215.497 267.156 214.247 267.156 212.712C267.156 211.175 268.465 209.926 270.074 209.926ZM270.075 217.435C272.799 217.435 275.017 215.316 275.017 212.712C275.017 210.108 272.799 207.988 270.075 207.988C267.347 207.988 265.129 210.108 265.129 212.712C265.129 215.316 267.347 217.435 270.075 217.435ZM277.414 218.645H261.085C260.849 218.645 260.202 218.645 260.202 219.598L260.002 234.502C260.002 235.068 259.959 235.922 260.317 236.335C260.675 236.747 261.202 236.954 262.145 236.353L262.252 220.582H276.587V235.542C276.587 236.078 277.04 236.511 277.601 236.511C278.161 236.511 278.615 236.078 278.615 235.542V220.042C278.615 219.507 278.615 218.645 277.414 218.645Z" fill="white"/>
<circle cx="270.549" cy="189.385" r="8.37328" fill="white"/>
<circle cx="270.55" cy="189.386" r="2.6316" fill="#374FF2"/>
</svg>
