<svg viewBox="200 210 545 69.154" width="300" height="80" class="pager mob-visible mb-5"  xmlns="http://www.w3.org/2000/svg" xmlns:xlink="http://www.w3.org/1999/xlink">
		  <defs>
			<path id="text-path-0" d="M 286.5282742232084 301.8685846179724 Q 280.0657984856516 227.44550838693976 322.07801965251565 289.2154941484332"/>
			<path id="path-1" d="M 286.5282742232084 301.8685846179724 Q 280.0657984856516 227.44550838693976 322.07801965251565 289.2154941484332"/>
			<path id="path-2" d="M 286.5282742232084 301.8685846179724 Q 280.0657984856516 227.44550838693976 322.07801965251565 289.2154941484332"/>
		  </defs>
		  
		 <path d="M200.423 52.8662H181.703V48.7462L191.263 38.9062C193.396 36.6395 194.463 34.7729 194.463 33.3062C194.463 32.2129 194.116 31.3329 193.423 30.6662C192.756 29.9995 191.889 29.6662 190.823 29.6662C188.689 29.6662 187.129 30.7595 186.143 32.9462L181.503 30.2262C182.356 28.3329 183.596 26.8795 185.223 25.8662C186.876 24.8262 188.716 24.3062 190.743 24.3062C193.276 24.3062 195.449 25.1062 197.263 26.7062C199.076 28.2795 199.983 30.4129 199.983 33.1062C199.983 36.0129 198.449 38.9995 195.383 42.0662L189.903 47.5462H200.423V52.8662Z" transform="matrix(1, 0, 0, 1, 201.937622, 209.144379)" style="fill: rgb(255, 255, 255);"/>
		  
		  <path  d="M353.983 29.4262L348.743 36.2262C350.689 36.7862 352.236 37.7729 353.383 39.1862C354.556 40.5995 355.143 42.2795 355.143 44.2262C355.143 47.1062 354.169 49.3595 352.223 50.9862C350.329 52.6129 347.969 53.4262 345.143 53.4262C342.929 53.4262 340.969 52.9195 339.263 51.9062C337.556 50.8662 336.316 49.3995 335.543 47.5062L340.263 44.7862C340.929 46.9462 342.556 48.0262 345.143 48.0262C346.556 48.0262 347.649 47.6929 348.423 47.0262C349.223 46.3329 349.623 45.3995 349.623 44.2262C349.623 43.0795 349.223 42.1595 348.423 41.4662C347.649 40.7729 346.556 40.4262 345.143 40.4262H343.943L341.823 37.2262L347.343 30.0262H336.383V24.8662H353.983V29.4262Z" transform="matrix(1, 0, 0, 1, 201.937622, 209.144379)" style="fill: rgb(255, 255, 255);"/>
		  
		  <path d="M508.263 42.9862H511.263V48.1062H508.263V52.8662H502.703V48.1062H489.463V42.9862L498.783 24.8662H504.703L495.423 42.9862H502.703V36.3462H508.263V42.9862Z" transform="matrix(1, 0, 0, 1, 201.937622, 209.144379)" style="fill: rgb(255, 255, 255);"/>		  
		  <path d="M26.0626 27.4662L33.4226 24.8662H38.2226V52.8662H32.7026V30.7062L27.4226 32.1862L26.0626 27.4662Z" transform="matrix(1, 0, 0, 1, 201.937622, 209.144379)" style="fill: rgb(255, 255, 255);"/>
		  
		  
		  <path class="redlineanim wow" d="M37.7657 10.3473C0.576312 2 -15.4831 59.6811 28.6581 70.3065C68.8835 79.9894 93.9289 3.51792 24.1043 2" stroke="#FF4444" stroke-width="3" stroke-linecap="round" transform="matrix(1, 0, 0, 1, 201.937622, 209.144379)" style="fill: none;"/>
		  	  
		  <path class="redlineanim wow" d="M192.766 10.3473C155.576 2 139.517 59.6811 183.658 70.3065C223.884 79.9894 248.929 3.51792 179.104 2" stroke="#FF4444" stroke-width="3" stroke-linecap="round" transform="matrix(1, 0, 0, 1, 201.937622, 209.144379)" style="fill: none;"/>
		  		 		  
		  <path class="redlineanim wow" d="M347.766 10.3473C310.576 2 294.517 59.6811 338.658 70.3065C378.884 79.9894 403.929 3.51792 334.104 2" stroke="#FF4444" stroke-width="3" stroke-linecap="round" transform="matrix(1, 0, 0, 1, 201.937622, 209.144379)" style="fill: none;"/>
		  <path class="redlineanim wow" d="M502.766 10.3473C465.576 2 449.517 59.6811 493.658 70.3065C533.884 79.9894 558.929 3.51792 489.104 2" stroke="#FF4444" stroke-width="3" stroke-linecap="round" transform="matrix(1, 0, 0, 1, 201.937622, 209.144379)" style="fill: none;"/>

		  <text class="fadeIn animated wow" style="fill: rgb(255, 255, 255); font-family: Arial, sans-serif; font-size: 64.6px; white-space: pre;" transform="matrix(1, 0, 0, 1, 50.584988, -36.132133)"><textPath xlink:href="#text-path-0">+</textPath></text>
		  <text class="fadeIn animated wow" style="fill: rgb(255, 255, 255); font-family: Arial, sans-serif; font-size: 64.6px; white-space: pre;" transform="matrix(1, 0, 0, 1, 206.531433, -37.91032)"><textPath xlink:href="#path-1">+</textPath></text>
		  <text class="fadeIn animated wow" style="fill: rgb(255, 255, 255); font-family: Arial, sans-serif; font-size: 64.6px; white-space: pre;" transform="matrix(1, 0, 0, 1, 363.089355, -37.91032)"><textPath xlink:href="#path-2">+</textPath></text>
		</svg>