<svg width="1245" height="314" viewBox="0 0 1245 314" fill="none" xmlns="http://www.w3.org/2000/svg">
<path d="M33.9608 68.305H19.0458L0.425781 1.805H14.2008L26.9308 51.11L40.8008 1.805H52.0108L65.9758 51.11L78.7058 1.805H92.4808L73.8608 68.305H58.9458L46.4058 24.415L33.9608 68.305Z" fill="#374FF2"/>
<path d="M33.9608 68.305H19.0458L0.425781 1.805H14.2008L26.9308 51.11L40.8008 1.805H52.0108L65.9758 51.11L78.7058 1.805H92.4808L73.8608 68.305H58.9458L46.4058 24.415L33.9608 68.305Z" fill="url(#paint0_linear_1509_288)"/>
<path d="M124.068 19.475C129.324 19.475 133.599 21.2167 136.893 24.7C140.313 28.2467 142.023 33.06 142.023 39.14V68.305H129.768V40.66C129.768 37.5567 128.913 35.15 127.203 33.44C125.556 31.73 123.276 30.875 120.363 30.875C117.133 30.875 114.568 31.8883 112.668 33.915C110.831 35.8783 109.913 38.7917 109.913 42.655V68.305H97.6575V1.805H109.913V26.125C112.826 21.6917 117.544 19.475 124.068 19.475Z" fill="#374FF2"/>
<path d="M124.068 19.475C129.324 19.475 133.599 21.2167 136.893 24.7C140.313 28.2467 142.023 33.06 142.023 39.14V68.305H129.768V40.66C129.768 37.5567 128.913 35.15 127.203 33.44C125.556 31.73 123.276 30.875 120.363 30.875C117.133 30.875 114.568 31.8883 112.668 33.915C110.831 35.8783 109.913 38.7917 109.913 42.655V68.305H97.6575V1.805H109.913V26.125C112.826 21.6917 117.544 19.475 124.068 19.475Z" fill="url(#paint1_linear_1509_288)"/>
<path d="M171.891 52.725L182.436 20.805H195.546L178.256 68.305C175.786 75.145 172.493 80.085 168.376 83.125C164.323 86.2283 159.256 87.6217 153.176 87.305V75.905C156.406 75.9683 159.003 75.2717 160.966 73.815C162.929 72.3583 164.481 70.015 165.621 66.785L146.146 20.805H159.541L171.891 52.725Z" fill="#374FF2"/>
<path d="M171.891 52.725L182.436 20.805H195.546L178.256 68.305C175.786 75.145 172.493 80.085 168.376 83.125C164.323 86.2283 159.256 87.6217 153.176 87.305V75.905C156.406 75.9683 159.003 75.2717 160.966 73.815C162.929 72.3583 164.481 70.015 165.621 66.785L146.146 20.805H159.541L171.891 52.725Z" fill="url(#paint2_linear_1509_288)"/>
<path d="M231.208 15.105C229.182 15.105 227.408 14.3767 225.888 12.92C224.432 11.4 223.703 9.62667 223.703 7.6C223.703 5.57334 224.432 3.8 225.888 2.28C227.408 0.76 229.182 0 231.208 0C233.298 0 235.072 0.76 236.528 2.28C238.048 3.8 238.808 5.57334 238.808 7.6C238.808 9.62667 238.048 11.4 236.528 12.92C235.072 14.3767 233.298 15.105 231.208 15.105ZM237.383 68.305H225.128V20.805H237.383V68.305Z" fill="#374FF2"/>
<path d="M231.208 15.105C229.182 15.105 227.408 14.3767 225.888 12.92C224.432 11.4 223.703 9.62667 223.703 7.6C223.703 5.57334 224.432 3.8 225.888 2.28C227.408 0.76 229.182 0 231.208 0C233.298 0 235.072 0.76 236.528 2.28C238.048 3.8 238.808 5.57334 238.808 7.6C238.808 9.62667 238.048 11.4 236.528 12.92C235.072 14.3767 233.298 15.105 231.208 15.105ZM237.383 68.305H225.128V20.805H237.383V68.305Z" fill="url(#paint3_linear_1509_288)"/>
<path d="M259.534 34.295C259.534 36.3217 262.415 38.0633 268.179 39.52C270.206 39.9633 272.042 40.5017 273.689 41.135C275.336 41.705 276.982 42.56 278.629 43.7C280.339 44.7767 281.669 46.2333 282.619 48.07C283.569 49.9067 284.044 52.0283 284.044 54.435C284.044 59.3117 282.207 63.08 278.534 65.74C274.861 68.3367 270.332 69.635 264.949 69.635C255.195 69.635 248.545 65.8667 244.999 58.33L255.639 52.345C257.095 56.4617 260.199 58.52 264.949 58.52C269.319 58.52 271.504 57.1583 271.504 54.435C271.504 52.4083 268.622 50.6667 262.859 49.21C260.706 48.64 258.869 48.07 257.349 47.5C255.829 46.93 254.182 46.1067 252.409 45.03C250.635 43.89 249.274 42.465 248.324 40.755C247.437 38.9817 246.994 36.9233 246.994 34.58C246.994 29.8933 248.704 26.22 252.124 23.56C255.607 20.8367 259.914 19.475 265.044 19.475C268.907 19.475 272.422 20.3617 275.589 22.135C278.755 23.845 281.257 26.315 283.094 29.545L272.644 35.245C271.124 32.015 268.59 30.4 265.044 30.4C263.46 30.4 262.13 30.78 261.054 31.54C260.04 32.2367 259.534 33.155 259.534 34.295Z" fill="#374FF2"/>
<path d="M259.534 34.295C259.534 36.3217 262.415 38.0633 268.179 39.52C270.206 39.9633 272.042 40.5017 273.689 41.135C275.336 41.705 276.982 42.56 278.629 43.7C280.339 44.7767 281.669 46.2333 282.619 48.07C283.569 49.9067 284.044 52.0283 284.044 54.435C284.044 59.3117 282.207 63.08 278.534 65.74C274.861 68.3367 270.332 69.635 264.949 69.635C255.195 69.635 248.545 65.8667 244.999 58.33L255.639 52.345C257.095 56.4617 260.199 58.52 264.949 58.52C269.319 58.52 271.504 57.1583 271.504 54.435C271.504 52.4083 268.622 50.6667 262.859 49.21C260.706 48.64 258.869 48.07 257.349 47.5C255.829 46.93 254.182 46.1067 252.409 45.03C250.635 43.89 249.274 42.465 248.324 40.755C247.437 38.9817 246.994 36.9233 246.994 34.58C246.994 29.8933 248.704 26.22 252.124 23.56C255.607 20.8367 259.914 19.475 265.044 19.475C268.907 19.475 272.422 20.3617 275.589 22.135C278.755 23.845 281.257 26.315 283.094 29.545L272.644 35.245C271.124 32.015 268.59 30.4 265.044 30.4C263.46 30.4 262.13 30.78 261.054 31.54C260.04 32.2367 259.534 33.155 259.534 34.295Z" fill="url(#paint4_linear_1509_288)"/>
<path d="M335.614 69.635C325.164 69.635 317.849 65.4233 313.669 57L324.974 50.54C327.064 54.72 330.611 56.81 335.614 56.81C339.034 56.81 341.599 56.0183 343.309 54.435C345.082 52.7883 345.969 50.5083 345.969 47.595V1.805H358.984V47.595C358.984 54.5617 356.799 59.9767 352.429 63.84C348.122 67.7033 342.517 69.635 335.614 69.635Z" fill="#374FF2"/>
<path d="M335.614 69.635C325.164 69.635 317.849 65.4233 313.669 57L324.974 50.54C327.064 54.72 330.611 56.81 335.614 56.81C339.034 56.81 341.599 56.0183 343.309 54.435C345.082 52.7883 345.969 50.5083 345.969 47.595V1.805H358.984V47.595C358.984 54.5617 356.799 59.9767 352.429 63.84C348.122 67.7033 342.517 69.635 335.614 69.635Z" fill="url(#paint5_linear_1509_288)"/>
<path d="M395.591 69.635C388.181 69.635 382.101 67.545 377.351 63.365C372.601 59.185 370.226 53.58 370.226 46.55V1.805H383.241V45.505C383.241 49.0517 384.254 51.8383 386.281 53.865C388.371 55.8283 391.474 56.81 395.591 56.81C399.708 56.81 402.779 55.8283 404.806 53.865C406.896 51.8383 407.941 49.0517 407.941 45.505V1.805H421.051V46.55C421.051 53.58 418.676 59.185 413.926 63.365C409.176 67.545 403.064 69.635 395.591 69.635Z" fill="#374FF2"/>
<path d="M395.591 69.635C388.181 69.635 382.101 67.545 377.351 63.365C372.601 59.185 370.226 53.58 370.226 46.55V1.805H383.241V45.505C383.241 49.0517 384.254 51.8383 386.281 53.865C388.371 55.8283 391.474 56.81 395.591 56.81C399.708 56.81 402.779 55.8283 404.806 53.865C406.896 51.8383 407.941 49.0517 407.941 45.505V1.805H421.051V46.55C421.051 53.58 418.676 59.185 413.926 63.365C409.176 67.545 403.064 69.635 395.591 69.635Z" fill="url(#paint6_linear_1509_288)"/>
<path d="M455.566 69.635C449.043 69.635 443.533 68.1783 439.036 65.265C434.54 62.3517 431.341 58.33 429.441 53.2L440.651 46.645C443.248 53.4217 448.346 56.81 455.946 56.81C459.493 56.81 462.153 56.1767 463.926 54.91C465.7 53.6433 466.586 51.9333 466.586 49.78C466.586 47.4367 465.541 45.6317 463.451 44.365C461.361 43.035 457.625 41.61 452.241 40.09C446.415 38.3167 441.823 36.2583 438.466 33.915C434.286 30.8117 432.196 26.2517 432.196 20.235C432.196 14.155 434.318 9.37333 438.561 5.89C442.805 2.28 447.966 0.475 454.046 0.475C459.366 0.475 464.085 1.77333 468.201 4.37C472.318 6.96667 475.516 10.64 477.796 15.39L466.776 21.755C464.116 16.055 459.873 13.205 454.046 13.205C451.386 13.205 449.265 13.8383 447.681 15.105C446.098 16.3083 445.306 17.8917 445.306 19.855C445.306 21.945 446.161 23.655 447.871 24.985C449.771 26.315 453.128 27.7083 457.941 29.165L462.501 30.685C463.325 30.9383 464.75 31.4767 466.776 32.3C468.676 32.9967 470.07 33.6617 470.956 34.295C474.06 36.195 476.15 38.1583 477.226 40.185C478.873 42.845 479.696 45.98 479.696 49.59C479.696 55.7333 477.448 60.61 472.951 64.22C468.455 67.83 462.66 69.635 455.566 69.635Z" fill="#374FF2"/>
<path d="M455.566 69.635C449.043 69.635 443.533 68.1783 439.036 65.265C434.54 62.3517 431.341 58.33 429.441 53.2L440.651 46.645C443.248 53.4217 448.346 56.81 455.946 56.81C459.493 56.81 462.153 56.1767 463.926 54.91C465.7 53.6433 466.586 51.9333 466.586 49.78C466.586 47.4367 465.541 45.6317 463.451 44.365C461.361 43.035 457.625 41.61 452.241 40.09C446.415 38.3167 441.823 36.2583 438.466 33.915C434.286 30.8117 432.196 26.2517 432.196 20.235C432.196 14.155 434.318 9.37333 438.561 5.89C442.805 2.28 447.966 0.475 454.046 0.475C459.366 0.475 464.085 1.77333 468.201 4.37C472.318 6.96667 475.516 10.64 477.796 15.39L466.776 21.755C464.116 16.055 459.873 13.205 454.046 13.205C451.386 13.205 449.265 13.8383 447.681 15.105C446.098 16.3083 445.306 17.8917 445.306 19.855C445.306 21.945 446.161 23.655 447.871 24.985C449.771 26.315 453.128 27.7083 457.941 29.165L462.501 30.685C463.325 30.9383 464.75 31.4767 466.776 32.3C468.676 32.9967 470.07 33.6617 470.956 34.295C474.06 36.195 476.15 38.1583 477.226 40.185C478.873 42.845 479.696 45.98 479.696 49.59C479.696 55.7333 477.448 60.61 472.951 64.22C468.455 67.83 462.66 69.635 455.566 69.635Z" fill="url(#paint7_linear_1509_288)"/>
<path d="M480.895 1.805H529.82V14.345H511.865V68.305H498.755V14.345H480.895V1.805Z" fill="#374FF2"/>
<path d="M480.895 1.805H529.82V14.345H511.865V68.305H498.755V14.345H480.895V1.805Z" fill="url(#paint8_linear_1509_288)"/>
<path d="M560.889 1.805H587.299C596.419 1.805 604.019 5.00333 610.099 11.4C616.242 17.7333 619.314 25.6183 619.314 35.055C619.314 44.4917 616.242 52.3767 610.099 58.71C604.019 65.1067 596.419 68.305 587.299 68.305H560.889V1.805ZM573.999 55.765H587.299C593.062 55.765 597.749 53.865 601.359 50.065C604.969 46.1383 606.774 41.135 606.774 35.055C606.774 28.9117 604.969 23.94 601.359 20.14C597.749 16.2767 593.062 14.345 587.299 14.345H573.999V55.765Z" fill="#374FF2"/>
<path d="M560.889 1.805H587.299C596.419 1.805 604.019 5.00333 610.099 11.4C616.242 17.7333 619.314 25.6183 619.314 35.055C619.314 44.4917 616.242 52.3767 610.099 58.71C604.019 65.1067 596.419 68.305 587.299 68.305H560.889V1.805ZM573.999 55.765H587.299C593.062 55.765 597.749 53.865 601.359 50.065C604.969 46.1383 606.774 41.135 606.774 35.055C606.774 28.9117 604.969 23.94 601.359 20.14C597.749 16.2767 593.062 14.345 587.299 14.345H573.999V55.765Z" fill="url(#paint9_linear_1509_288)"/>
<path d="M684.568 59.66C677.855 66.31 669.685 69.635 660.058 69.635C650.432 69.635 642.262 66.31 635.548 59.66C628.898 52.8833 625.573 44.6817 625.573 35.055C625.573 25.365 628.898 17.195 635.548 10.545C642.262 3.83167 650.432 0.475 660.058 0.475C669.685 0.475 677.855 3.83167 684.568 10.545C691.282 17.195 694.638 25.365 694.638 35.055C694.638 44.745 691.282 52.9467 684.568 59.66ZM644.763 50.73C648.817 54.7833 653.915 56.81 660.058 56.81C666.202 56.81 671.3 54.7833 675.353 50.73C679.47 46.6133 681.528 41.3883 681.528 35.055C681.528 28.7217 679.47 23.4967 675.353 19.38C671.237 15.2633 666.138 13.205 660.058 13.205C653.978 13.205 648.88 15.2633 644.763 19.38C640.647 23.4967 638.588 28.7217 638.588 35.055C638.588 41.3883 640.647 46.6133 644.763 50.73Z" fill="#374FF2"/>
<path d="M684.568 59.66C677.855 66.31 669.685 69.635 660.058 69.635C650.432 69.635 642.262 66.31 635.548 59.66C628.898 52.8833 625.573 44.6817 625.573 35.055C625.573 25.365 628.898 17.195 635.548 10.545C642.262 3.83167 650.432 0.475 660.058 0.475C669.685 0.475 677.855 3.83167 684.568 10.545C691.282 17.195 694.638 25.365 694.638 35.055C694.638 44.745 691.282 52.9467 684.568 59.66ZM644.763 50.73C648.817 54.7833 653.915 56.81 660.058 56.81C666.202 56.81 671.3 54.7833 675.353 50.73C679.47 46.6133 681.528 41.3883 681.528 35.055C681.528 28.7217 679.47 23.4967 675.353 19.38C671.237 15.2633 666.138 13.205 660.058 13.205C653.978 13.205 648.88 15.2633 644.763 19.38C640.647 23.4967 638.588 28.7217 638.588 35.055C638.588 41.3883 640.647 46.6133 644.763 50.73Z" fill="url(#paint10_linear_1509_288)"/>
<path d="M740.713 1.805V55.765H766.078V68.305H727.603V1.805H740.713Z" fill="#374FF2"/>
<path d="M740.713 1.805V55.765H766.078V68.305H727.603V1.805H740.713Z" fill="url(#paint11_linear_1509_288)"/>
<path d="M797.3 69.635C789.89 69.635 783.81 67.545 779.06 63.365C774.31 59.185 771.935 53.58 771.935 46.55V1.805H784.95V45.505C784.95 49.0517 785.963 51.8383 787.99 53.865C790.08 55.8283 793.183 56.81 797.3 56.81C801.417 56.81 804.488 55.8283 806.515 53.865C808.605 51.8383 809.65 49.0517 809.65 45.505V1.805H822.76V46.55C822.76 53.58 820.385 59.185 815.635 63.365C810.885 67.545 804.773 69.635 797.3 69.635Z" fill="#374FF2"/>
<path d="M797.3 69.635C789.89 69.635 783.81 67.545 779.06 63.365C774.31 59.185 771.935 53.58 771.935 46.55V1.805H784.95V45.505C784.95 49.0517 785.963 51.8383 787.99 53.865C790.08 55.8283 793.183 56.81 797.3 56.81C801.417 56.81 804.488 55.8283 806.515 53.865C808.605 51.8383 809.65 49.0517 809.65 45.505V1.805H822.76V46.55C822.76 53.58 820.385 59.185 815.635 63.365C810.885 67.545 804.773 69.635 797.3 69.635Z" fill="url(#paint12_linear_1509_288)"/>
<path d="M866.11 69.635C856.167 69.635 847.902 66.31 841.315 59.66C834.792 53.0733 831.53 44.8717 831.53 35.055C831.53 25.175 834.792 16.9733 841.315 10.45C847.902 3.8 856.167 0.475 866.11 0.475C872.127 0.475 877.669 1.9 882.735 4.75C887.865 7.53667 891.855 11.3367 894.705 16.15L883.4 22.705C881.754 19.7283 879.41 17.4167 876.37 15.77C873.33 14.06 869.91 13.205 866.11 13.205C859.65 13.205 854.425 15.2317 850.435 19.285C846.509 23.4017 844.545 28.6583 844.545 35.055C844.545 41.3883 846.509 46.6133 850.435 50.73C854.425 54.7833 859.65 56.81 866.11 56.81C869.91 56.81 873.33 55.9867 876.37 54.34C879.474 52.63 881.817 50.3183 883.4 47.405L894.705 53.96C891.855 58.7733 887.865 62.605 882.735 65.455C877.669 68.2417 872.127 69.635 866.11 69.635Z" fill="#374FF2"/>
<path d="M866.11 69.635C856.167 69.635 847.902 66.31 841.315 59.66C834.792 53.0733 831.53 44.8717 831.53 35.055C831.53 25.175 834.792 16.9733 841.315 10.45C847.902 3.8 856.167 0.475 866.11 0.475C872.127 0.475 877.669 1.9 882.735 4.75C887.865 7.53667 891.855 11.3367 894.705 16.15L883.4 22.705C881.754 19.7283 879.41 17.4167 876.37 15.77C873.33 14.06 869.91 13.205 866.11 13.205C859.65 13.205 854.425 15.2317 850.435 19.285C846.509 23.4017 844.545 28.6583 844.545 35.055C844.545 41.3883 846.509 46.6133 850.435 50.73C854.425 54.7833 859.65 56.81 866.11 56.81C869.91 56.81 873.33 55.9867 876.37 54.34C879.474 52.63 881.817 50.3183 883.4 47.405L894.705 53.96C891.855 58.7733 887.865 62.605 882.735 65.455C877.669 68.2417 872.127 69.635 866.11 69.635Z" fill="url(#paint13_linear_1509_288)"/>
<path d="M929.169 34.105L954.724 68.305H939.619L915.869 37.145V68.305H902.759V1.805H915.869V31.16L938.669 1.805H953.774L929.169 34.105Z" fill="#374FF2"/>
<path d="M929.169 34.105L954.724 68.305H939.619L915.869 37.145V68.305H902.759V1.805H915.869V31.16L938.669 1.805H953.774L929.169 34.105Z" fill="url(#paint14_linear_1509_288)"/>
<path d="M363.706 139.41V133.805H375.961V181.305H363.706V175.7C360.032 180.323 354.871 182.635 348.221 182.635C341.887 182.635 336.441 180.228 331.881 175.415C327.384 170.538 325.136 164.585 325.136 157.555C325.136 150.588 327.384 144.667 331.881 139.79C336.441 134.913 341.887 132.475 348.221 132.475C354.871 132.475 360.032 134.787 363.706 139.41ZM341.096 167.245C343.566 169.715 346.701 170.95 350.501 170.95C354.301 170.95 357.436 169.715 359.906 167.245C362.439 164.712 363.706 161.482 363.706 157.555C363.706 153.628 362.439 150.43 359.906 147.96C357.436 145.427 354.301 144.16 350.501 144.16C346.701 144.16 343.566 145.427 341.096 147.96C338.626 150.43 337.391 153.628 337.391 157.555C337.391 161.482 338.626 164.712 341.096 167.245Z" fill="#374FF2"/>
<path d="M363.706 139.41V133.805H375.961V181.305H363.706V175.7C360.032 180.323 354.871 182.635 348.221 182.635C341.887 182.635 336.441 180.228 331.881 175.415C327.384 170.538 325.136 164.585 325.136 157.555C325.136 150.588 327.384 144.667 331.881 139.79C336.441 134.913 341.887 132.475 348.221 132.475C354.871 132.475 360.032 134.787 363.706 139.41ZM341.096 167.245C343.566 169.715 346.701 170.95 350.501 170.95C354.301 170.95 357.436 169.715 359.906 167.245C362.439 164.712 363.706 161.482 363.706 157.555C363.706 153.628 362.439 150.43 359.906 147.96C357.436 145.427 354.301 144.16 350.501 144.16C346.701 144.16 343.566 145.427 341.096 147.96C338.626 150.43 337.391 153.628 337.391 157.555C337.391 161.482 338.626 164.712 341.096 167.245Z" fill="url(#paint15_linear_1509_288)"/>
<path d="M433.434 182.635C426.277 182.635 420.292 180.228 415.479 175.415C410.729 170.602 408.354 164.648 408.354 157.555C408.354 150.462 410.729 144.508 415.479 139.695C420.292 134.882 426.277 132.475 433.434 132.475C438.057 132.475 442.269 133.583 446.069 135.8C449.869 138.017 452.75 140.993 454.714 144.73L444.169 150.905C443.219 148.942 441.762 147.39 439.799 146.25C437.899 145.11 435.745 144.54 433.339 144.54C429.665 144.54 426.625 145.775 424.219 148.245C421.812 150.652 420.609 153.755 420.609 157.555C420.609 161.228 421.812 164.332 424.219 166.865C426.625 169.272 429.665 170.475 433.339 170.475C435.809 170.475 437.994 169.937 439.894 168.86C441.857 167.72 443.314 166.168 444.264 164.205L454.904 170.285C452.814 174.085 449.837 177.093 445.974 179.31C442.174 181.527 437.994 182.635 433.434 182.635Z" fill="#374FF2"/>
<path d="M433.434 182.635C426.277 182.635 420.292 180.228 415.479 175.415C410.729 170.602 408.354 164.648 408.354 157.555C408.354 150.462 410.729 144.508 415.479 139.695C420.292 134.882 426.277 132.475 433.434 132.475C438.057 132.475 442.269 133.583 446.069 135.8C449.869 138.017 452.75 140.993 454.714 144.73L444.169 150.905C443.219 148.942 441.762 147.39 439.799 146.25C437.899 145.11 435.745 144.54 433.339 144.54C429.665 144.54 426.625 145.775 424.219 148.245C421.812 150.652 420.609 153.755 420.609 157.555C420.609 161.228 421.812 164.332 424.219 166.865C426.625 169.272 429.665 170.475 433.339 170.475C435.809 170.475 437.994 169.937 439.894 168.86C441.857 167.72 443.314 166.168 444.264 164.205L454.904 170.285C452.814 174.085 449.837 177.093 445.974 179.31C442.174 181.527 437.994 182.635 433.434 182.635Z" fill="url(#paint16_linear_1509_288)"/>
<path d="M501.113 175.415C496.3 180.228 490.346 182.635 483.253 182.635C476.16 182.635 470.206 180.228 465.393 175.415C460.58 170.602 458.173 164.648 458.173 157.555C458.173 150.525 460.58 144.603 465.393 139.79C470.27 134.913 476.223 132.475 483.253 132.475C490.283 132.475 496.236 134.913 501.113 139.79C505.99 144.667 508.428 150.588 508.428 157.555C508.428 164.585 505.99 170.538 501.113 175.415ZM474.038 166.96C476.508 169.43 479.58 170.665 483.253 170.665C486.926 170.665 489.998 169.43 492.468 166.96C494.938 164.49 496.173 161.355 496.173 157.555C496.173 153.755 494.938 150.62 492.468 148.15C489.998 145.68 486.926 144.445 483.253 144.445C479.58 144.445 476.508 145.68 474.038 148.15C471.631 150.683 470.428 153.818 470.428 157.555C470.428 161.292 471.631 164.427 474.038 166.96Z" fill="#374FF2"/>
<path d="M501.113 175.415C496.3 180.228 490.346 182.635 483.253 182.635C476.16 182.635 470.206 180.228 465.393 175.415C460.58 170.602 458.173 164.648 458.173 157.555C458.173 150.525 460.58 144.603 465.393 139.79C470.27 134.913 476.223 132.475 483.253 132.475C490.283 132.475 496.236 134.913 501.113 139.79C505.99 144.667 508.428 150.588 508.428 157.555C508.428 164.585 505.99 170.538 501.113 175.415ZM474.038 166.96C476.508 169.43 479.58 170.665 483.253 170.665C486.926 170.665 489.998 169.43 492.468 166.96C494.938 164.49 496.173 161.355 496.173 157.555C496.173 153.755 494.938 150.62 492.468 148.15C489.998 145.68 486.926 144.445 483.253 144.445C479.58 144.445 476.508 145.68 474.038 148.15C471.631 150.683 470.428 153.818 470.428 157.555C470.428 161.292 471.631 164.427 474.038 166.96Z" fill="url(#paint17_linear_1509_288)"/>
<path d="M557.519 175.415C552.706 180.228 546.752 182.635 539.659 182.635C532.566 182.635 526.612 180.228 521.799 175.415C516.986 170.602 514.579 164.648 514.579 157.555C514.579 150.525 516.986 144.603 521.799 139.79C526.676 134.913 532.629 132.475 539.659 132.475C546.689 132.475 552.643 134.913 557.519 139.79C562.396 144.667 564.834 150.588 564.834 157.555C564.834 164.585 562.396 170.538 557.519 175.415ZM530.444 166.96C532.914 169.43 535.986 170.665 539.659 170.665C543.332 170.665 546.404 169.43 548.874 166.96C551.344 164.49 552.579 161.355 552.579 157.555C552.579 153.755 551.344 150.62 548.874 148.15C546.404 145.68 543.332 144.445 539.659 144.445C535.986 144.445 532.914 145.68 530.444 148.15C528.037 150.683 526.834 153.818 526.834 157.555C526.834 161.292 528.037 164.427 530.444 166.96Z" fill="#374FF2"/>
<path d="M557.519 175.415C552.706 180.228 546.752 182.635 539.659 182.635C532.566 182.635 526.612 180.228 521.799 175.415C516.986 170.602 514.579 164.648 514.579 157.555C514.579 150.525 516.986 144.603 521.799 139.79C526.676 134.913 532.629 132.475 539.659 132.475C546.689 132.475 552.643 134.913 557.519 139.79C562.396 144.667 564.834 150.588 564.834 157.555C564.834 164.585 562.396 170.538 557.519 175.415ZM530.444 166.96C532.914 169.43 535.986 170.665 539.659 170.665C543.332 170.665 546.404 169.43 548.874 166.96C551.344 164.49 552.579 161.355 552.579 157.555C552.579 153.755 551.344 150.62 548.874 148.15C546.404 145.68 543.332 144.445 539.659 144.445C535.986 144.445 532.914 145.68 530.444 148.15C528.037 150.683 526.834 153.818 526.834 157.555C526.834 161.292 528.037 164.427 530.444 166.96Z" fill="url(#paint18_linear_1509_288)"/>
<path d="M585.71 181.305H573.455V111.955H585.71V181.305Z" fill="#374FF2"/>
<path d="M585.71 181.305H573.455V111.955H585.71V181.305Z" fill="url(#paint19_linear_1509_288)"/>
<path d="M673.212 132.475C678.659 132.475 682.997 134.248 686.227 137.795C689.52 141.342 691.167 146.092 691.167 152.045V181.305H678.912V152.9C678.912 150.05 678.215 147.833 676.822 146.25C675.429 144.667 673.465 143.875 670.932 143.875C668.145 143.875 665.96 144.793 664.377 146.63C662.857 148.467 662.097 151.127 662.097 154.61V181.305H649.842V152.9C649.842 150.05 649.145 147.833 647.752 146.25C646.359 144.667 644.395 143.875 641.862 143.875C639.139 143.875 636.954 144.825 635.307 146.725C633.724 148.562 632.932 151.19 632.932 154.61V181.305H620.677V133.805H632.932V138.84C635.782 134.597 640.184 132.475 646.137 132.475C652.027 132.475 656.334 134.755 659.057 139.315C662.16 134.755 666.879 132.475 673.212 132.475Z" fill="#374FF2"/>
<path d="M673.212 132.475C678.659 132.475 682.997 134.248 686.227 137.795C689.52 141.342 691.167 146.092 691.167 152.045V181.305H678.912V152.9C678.912 150.05 678.215 147.833 676.822 146.25C675.429 144.667 673.465 143.875 670.932 143.875C668.145 143.875 665.96 144.793 664.377 146.63C662.857 148.467 662.097 151.127 662.097 154.61V181.305H649.842V152.9C649.842 150.05 649.145 147.833 647.752 146.25C646.359 144.667 644.395 143.875 641.862 143.875C639.139 143.875 636.954 144.825 635.307 146.725C633.724 148.562 632.932 151.19 632.932 154.61V181.305H620.677V133.805H632.932V138.84C635.782 134.597 640.184 132.475 646.137 132.475C652.027 132.475 656.334 134.755 659.057 139.315C662.16 134.755 666.879 132.475 673.212 132.475Z" fill="url(#paint20_linear_1509_288)"/>
<path d="M737.676 139.41V133.805H749.93V181.305H737.676V175.7C734.002 180.323 728.841 182.635 722.19 182.635C715.857 182.635 710.411 180.228 705.851 175.415C701.354 170.538 699.106 164.585 699.106 157.555C699.106 150.588 701.354 144.667 705.851 139.79C710.411 134.913 715.857 132.475 722.19 132.475C728.841 132.475 734.002 134.787 737.676 139.41ZM715.065 167.245C717.535 169.715 720.671 170.95 724.471 170.95C728.271 170.95 731.406 169.715 733.875 167.245C736.409 164.712 737.676 161.482 737.676 157.555C737.676 153.628 736.409 150.43 733.875 147.96C731.406 145.427 728.271 144.16 724.471 144.16C720.671 144.16 717.535 145.427 715.065 147.96C712.596 150.43 711.361 153.628 711.361 157.555C711.361 161.482 712.596 164.712 715.065 167.245Z" fill="#374FF2"/>
<path d="M737.676 139.41V133.805H749.93V181.305H737.676V175.7C734.002 180.323 728.841 182.635 722.19 182.635C715.857 182.635 710.411 180.228 705.851 175.415C701.354 170.538 699.106 164.585 699.106 157.555C699.106 150.588 701.354 144.667 705.851 139.79C710.411 134.913 715.857 132.475 722.19 132.475C728.841 132.475 734.002 134.787 737.676 139.41ZM715.065 167.245C717.535 169.715 720.671 170.95 724.471 170.95C728.271 170.95 731.406 169.715 733.875 167.245C736.409 164.712 737.676 161.482 737.676 157.555C737.676 153.628 736.409 150.43 733.875 147.96C731.406 145.427 728.271 144.16 724.471 144.16C720.671 144.16 717.535 145.427 715.065 147.96C712.596 150.43 711.361 153.628 711.361 157.555C711.361 161.482 712.596 164.712 715.065 167.245Z" fill="url(#paint21_linear_1509_288)"/>
<path d="M773.298 133.805V141.975C774.375 138.998 776.212 136.75 778.808 135.23C781.405 133.647 784.382 132.855 787.738 132.855V146.535C784.002 146.028 780.645 146.788 777.668 148.815C774.755 150.778 773.298 154.04 773.298 158.6V181.305H761.043V133.805H773.298Z" fill="#374FF2"/>
<path d="M773.298 133.805V141.975C774.375 138.998 776.212 136.75 778.808 135.23C781.405 133.647 784.382 132.855 787.738 132.855V146.535C784.002 146.028 780.645 146.788 777.668 148.815C774.755 150.778 773.298 154.04 773.298 158.6V181.305H761.043V133.805H773.298Z" fill="url(#paint22_linear_1509_288)"/>
<path d="M819.036 157.27L838.701 181.305H824.451L807.161 159.74V181.305H794.906V114.805H807.161V154.705L823.501 133.805H838.131L819.036 157.27Z" fill="#374FF2"/>
<path d="M819.036 157.27L838.701 181.305H824.451L807.161 159.74V181.305H794.906V114.805H807.161V154.705L823.501 133.805H838.131L819.036 157.27Z" fill="url(#paint23_linear_1509_288)"/>
<path d="M887.555 162.59H851.74C853.323 168.543 857.788 171.52 865.135 171.52C869.822 171.52 873.368 169.937 875.775 166.77L885.655 172.47C880.968 179.247 874.065 182.635 864.945 182.635C857.092 182.635 850.79 180.26 846.04 175.51C841.29 170.76 838.915 164.775 838.915 157.555C838.915 150.462 841.258 144.508 845.945 139.695C850.568 134.882 856.585 132.475 863.995 132.475C871.025 132.475 876.757 134.882 881.19 139.695C885.75 144.508 888.03 150.462 888.03 157.555C888.03 158.885 887.872 160.563 887.555 162.59ZM851.55 153.09H875.775C875.078 149.987 873.653 147.612 871.5 145.965C869.41 144.318 866.908 143.495 863.995 143.495C860.702 143.495 857.978 144.35 855.825 146.06C853.672 147.707 852.247 150.05 851.55 153.09Z" fill="#374FF2"/>
<path d="M887.555 162.59H851.74C853.323 168.543 857.788 171.52 865.135 171.52C869.822 171.52 873.368 169.937 875.775 166.77L885.655 172.47C880.968 179.247 874.065 182.635 864.945 182.635C857.092 182.635 850.79 180.26 846.04 175.51C841.29 170.76 838.915 164.775 838.915 157.555C838.915 150.462 841.258 144.508 845.945 139.695C850.568 134.882 856.585 132.475 863.995 132.475C871.025 132.475 876.757 134.882 881.19 139.695C885.75 144.508 888.03 150.462 888.03 157.555C888.03 158.885 887.872 160.563 887.555 162.59ZM851.55 153.09H875.775C875.078 149.987 873.653 147.612 871.5 145.965C869.41 144.318 866.908 143.495 863.995 143.495C860.702 143.495 857.978 144.35 855.825 146.06C853.672 147.707 852.247 150.05 851.55 153.09Z" fill="url(#paint24_linear_1509_288)"/>
<path d="M922.364 133.805V145.585H911.629V165.345C911.629 166.992 912.04 168.195 912.864 168.955C913.687 169.715 914.89 170.158 916.474 170.285C918.057 170.348 920.02 170.317 922.364 170.19V181.305C914.067 182.255 908.145 181.495 904.599 179.025C901.115 176.492 899.374 171.932 899.374 165.345V145.585H891.109V133.805H899.374V124.21L911.629 120.505V133.805H922.364Z" fill="#374FF2"/>
<path d="M922.364 133.805V145.585H911.629V165.345C911.629 166.992 912.04 168.195 912.864 168.955C913.687 169.715 914.89 170.158 916.474 170.285C918.057 170.348 920.02 170.317 922.364 170.19V181.305C914.067 182.255 908.145 181.495 904.599 179.025C901.115 176.492 899.374 171.932 899.374 165.345V145.585H891.109V133.805H899.374V124.21L911.629 120.505V133.805H922.364Z" fill="url(#paint25_linear_1509_288)"/>
<path d="M937.084 128.105C935.058 128.105 933.284 127.377 931.764 125.92C930.308 124.4 929.579 122.627 929.579 120.6C929.579 118.573 930.308 116.8 931.764 115.28C933.284 113.76 935.058 113 937.084 113C939.174 113 940.948 113.76 942.404 115.28C943.924 116.8 944.684 118.573 944.684 120.6C944.684 122.627 943.924 124.4 942.404 125.92C940.948 127.377 939.174 128.105 937.084 128.105ZM943.259 181.305H931.004V133.805H943.259V181.305Z" fill="#374FF2"/>
<path d="M937.084 128.105C935.058 128.105 933.284 127.377 931.764 125.92C930.308 124.4 929.579 122.627 929.579 120.6C929.579 118.573 930.308 116.8 931.764 115.28C933.284 113.76 935.058 113 937.084 113C939.174 113 940.948 113.76 942.404 115.28C943.924 116.8 944.684 118.573 944.684 120.6C944.684 122.627 943.924 124.4 942.404 125.92C940.948 127.377 939.174 128.105 937.084 128.105ZM943.259 181.305H931.004V133.805H943.259V181.305Z" fill="url(#paint26_linear_1509_288)"/>
<path d="M980.886 132.475C986.143 132.475 990.418 134.217 993.711 137.7C997.131 141.247 998.841 146.06 998.841 152.14V181.305H986.586V153.66C986.586 150.557 985.731 148.15 984.021 146.44C982.374 144.73 980.094 143.875 977.181 143.875C973.951 143.875 971.386 144.888 969.486 146.915C967.649 148.878 966.731 151.792 966.731 155.655V181.305H954.476V133.805H966.731V139.125C969.644 134.692 974.363 132.475 980.886 132.475Z" fill="#374FF2"/>
<path d="M980.886 132.475C986.143 132.475 990.418 134.217 993.711 137.7C997.131 141.247 998.841 146.06 998.841 152.14V181.305H986.586V153.66C986.586 150.557 985.731 148.15 984.021 146.44C982.374 144.73 980.094 143.875 977.181 143.875C973.951 143.875 971.386 144.888 969.486 146.915C967.649 148.878 966.731 151.792 966.731 155.655V181.305H954.476V133.805H966.731V139.125C969.644 134.692 974.363 132.475 980.886 132.475Z" fill="url(#paint27_linear_1509_288)"/>
<path d="M1045.69 139.695V133.805H1057.66V179.025C1057.66 186.308 1055.22 191.913 1050.34 195.84C1045.53 199.703 1039.7 201.635 1032.86 201.635C1022.1 201.635 1014.59 197.772 1010.35 190.045L1020.8 184.06C1023.14 188.493 1027.29 190.71 1033.24 190.71C1037.11 190.71 1040.15 189.697 1042.36 187.67C1044.58 185.643 1045.69 182.762 1045.69 179.025V173.895C1042.08 178.708 1037.01 181.115 1030.49 181.115C1023.78 181.115 1018.14 178.772 1013.58 174.085C1009.08 169.272 1006.84 163.508 1006.84 156.795C1006.84 150.082 1009.11 144.35 1013.67 139.6C1018.23 134.85 1023.84 132.475 1030.49 132.475C1037.01 132.475 1042.08 134.882 1045.69 139.695ZM1041.89 166.2C1044.42 163.73 1045.69 160.595 1045.69 156.795C1045.69 152.995 1044.42 149.923 1041.89 147.58C1039.42 145.11 1036.25 143.875 1032.39 143.875C1028.59 143.875 1025.39 145.11 1022.79 147.58C1020.33 149.923 1019.09 152.995 1019.09 156.795C1019.09 160.595 1020.33 163.73 1022.79 166.2C1025.33 168.607 1028.53 169.81 1032.39 169.81C1036.25 169.81 1039.42 168.607 1041.89 166.2Z" fill="#374FF2"/>
<path d="M1045.69 139.695V133.805H1057.66V179.025C1057.66 186.308 1055.22 191.913 1050.34 195.84C1045.53 199.703 1039.7 201.635 1032.86 201.635C1022.1 201.635 1014.59 197.772 1010.35 190.045L1020.8 184.06C1023.14 188.493 1027.29 190.71 1033.24 190.71C1037.11 190.71 1040.15 189.697 1042.36 187.67C1044.58 185.643 1045.69 182.762 1045.69 179.025V173.895C1042.08 178.708 1037.01 181.115 1030.49 181.115C1023.78 181.115 1018.14 178.772 1013.58 174.085C1009.08 169.272 1006.84 163.508 1006.84 156.795C1006.84 150.082 1009.11 144.35 1013.67 139.6C1018.23 134.85 1023.84 132.475 1030.49 132.475C1037.01 132.475 1042.08 134.882 1045.69 139.695ZM1041.89 166.2C1044.42 163.73 1045.69 160.595 1045.69 156.795C1045.69 152.995 1044.42 149.923 1041.89 147.58C1039.42 145.11 1036.25 143.875 1032.39 143.875C1028.59 143.875 1025.39 145.11 1022.79 147.58C1020.33 149.923 1019.09 152.995 1019.09 156.795C1019.09 160.595 1020.33 163.73 1022.79 166.2C1025.33 168.607 1028.53 169.81 1032.39 169.81C1036.25 169.81 1039.42 168.607 1041.89 166.2Z" fill="url(#paint28_linear_1509_288)"/>
<path d="M858.251 245.475C864.647 245.475 870.094 247.913 874.591 252.79C879.151 257.667 881.431 263.588 881.431 270.555C881.431 277.648 879.151 283.602 874.591 288.415C870.157 293.228 864.711 295.635 858.251 295.635C851.601 295.635 846.471 293.323 842.861 288.7V313.305H830.606V246.805H842.861V252.41C846.471 247.787 851.601 245.475 858.251 245.475ZM846.566 280.245C849.036 282.715 852.171 283.95 855.971 283.95C859.771 283.95 862.906 282.715 865.376 280.245C867.909 277.712 869.176 274.482 869.176 270.555C869.176 266.628 867.909 263.43 865.376 260.96C862.906 258.427 859.771 257.16 855.971 257.16C852.171 257.16 849.036 258.427 846.566 260.96C844.096 263.43 842.861 266.628 842.861 270.555C842.861 274.482 844.096 277.712 846.566 280.245Z" fill="#374FF2"/>
<path d="M858.251 245.475C864.647 245.475 870.094 247.913 874.591 252.79C879.151 257.667 881.431 263.588 881.431 270.555C881.431 277.648 879.151 283.602 874.591 288.415C870.157 293.228 864.711 295.635 858.251 295.635C851.601 295.635 846.471 293.323 842.861 288.7V313.305H830.606V246.805H842.861V252.41C846.471 247.787 851.601 245.475 858.251 245.475ZM846.566 280.245C849.036 282.715 852.171 283.95 855.971 283.95C859.771 283.95 862.906 282.715 865.376 280.245C867.909 277.712 869.176 274.482 869.176 270.555C869.176 266.628 867.909 263.43 865.376 260.96C862.906 258.427 859.771 257.16 855.971 257.16C852.171 257.16 849.036 258.427 846.566 260.96C844.096 263.43 842.861 266.628 842.861 270.555C842.861 274.482 844.096 277.712 846.566 280.245Z" fill="url(#paint29_linear_1509_288)"/>
<path d="M902.329 294.305H890.074V224.955H902.329V294.305Z" fill="#374FF2"/>
<path d="M902.329 294.305H890.074V224.955H902.329V294.305Z" fill="url(#paint30_linear_1509_288)"/>
<path d="M949.645 252.41V246.805H961.9V294.305H949.645V288.7C945.972 293.323 940.81 295.635 934.16 295.635C927.827 295.635 922.38 293.228 917.82 288.415C913.324 283.538 911.075 277.585 911.075 270.555C911.075 263.588 913.324 257.667 917.82 252.79C922.38 247.913 927.827 245.475 934.16 245.475C940.81 245.475 945.972 247.787 949.645 252.41ZM927.035 280.245C929.505 282.715 932.64 283.95 936.44 283.95C940.24 283.95 943.375 282.715 945.845 280.245C948.379 277.712 949.645 274.482 949.645 270.555C949.645 266.628 948.379 263.43 945.845 260.96C943.375 258.427 940.24 257.16 936.44 257.16C932.64 257.16 929.505 258.427 927.035 260.96C924.565 263.43 923.33 266.628 923.33 270.555C923.33 274.482 924.565 277.712 927.035 280.245Z" fill="#374FF2"/>
<path d="M949.645 252.41V246.805H961.9V294.305H949.645V288.7C945.972 293.323 940.81 295.635 934.16 295.635C927.827 295.635 922.38 293.228 917.82 288.415C913.324 283.538 911.075 277.585 911.075 270.555C911.075 263.588 913.324 257.667 917.82 252.79C922.38 247.913 927.827 245.475 934.16 245.475C940.81 245.475 945.972 247.787 949.645 252.41ZM927.035 280.245C929.505 282.715 932.64 283.95 936.44 283.95C940.24 283.95 943.375 282.715 945.845 280.245C948.379 277.712 949.645 274.482 949.645 270.555C949.645 266.628 948.379 263.43 945.845 260.96C943.375 258.427 940.24 257.16 936.44 257.16C932.64 257.16 929.505 258.427 927.035 260.96C924.565 263.43 923.33 266.628 923.33 270.555C923.33 274.482 924.565 277.712 927.035 280.245Z" fill="url(#paint31_linear_1509_288)"/>
<path d="M1000.18 246.805V258.585H989.448V278.345C989.448 279.992 989.86 281.195 990.683 281.955C991.506 282.715 992.71 283.158 994.293 283.285C995.876 283.348 997.84 283.317 1000.18 283.19V294.305C991.886 295.255 985.965 294.495 982.418 292.025C978.935 289.492 977.193 284.932 977.193 278.345V258.585H968.928V246.805H977.193V237.21L989.448 233.505V246.805H1000.18Z" fill="#374FF2"/>
<path d="M1000.18 246.805V258.585H989.448V278.345C989.448 279.992 989.86 281.195 990.683 281.955C991.506 282.715 992.71 283.158 994.293 283.285C995.876 283.348 997.84 283.317 1000.18 283.19V294.305C991.886 295.255 985.965 294.495 982.418 292.025C978.935 289.492 977.193 284.932 977.193 278.345V258.585H968.928V246.805H977.193V237.21L989.448 233.505V246.805H1000.18Z" fill="url(#paint32_linear_1509_288)"/>
<path d="M1032.06 226.475V238.255C1025.35 237.812 1021.99 240.503 1021.99 246.33V246.805H1032.06V258.585H1021.99V294.305H1009.73V258.585H1002.89V246.805H1009.73V246.33C1009.73 239.553 1011.6 234.455 1015.34 231.035C1019.14 227.552 1024.71 226.032 1032.06 226.475Z" fill="#374FF2"/>
<path d="M1032.06 226.475V238.255C1025.35 237.812 1021.99 240.503 1021.99 246.33V246.805H1032.06V258.585H1021.99V294.305H1009.73V258.585H1002.89V246.805H1009.73V246.33C1009.73 239.553 1011.6 234.455 1015.34 231.035C1019.14 227.552 1024.71 226.032 1032.06 226.475Z" fill="url(#paint33_linear_1509_288)"/>
<path d="M1076.38 288.415C1071.57 293.228 1065.62 295.635 1058.52 295.635C1051.43 295.635 1045.48 293.228 1040.66 288.415C1035.85 283.602 1033.44 277.648 1033.44 270.555C1033.44 263.525 1035.85 257.603 1040.66 252.79C1045.54 247.913 1051.49 245.475 1058.52 245.475C1065.55 245.475 1071.51 247.913 1076.38 252.79C1081.26 257.667 1083.7 263.588 1083.7 270.555C1083.7 277.585 1081.26 283.538 1076.38 288.415ZM1049.31 279.96C1051.78 282.43 1054.85 283.665 1058.52 283.665C1062.2 283.665 1065.27 282.43 1067.74 279.96C1070.21 277.49 1071.44 274.355 1071.44 270.555C1071.44 266.755 1070.21 263.62 1067.74 261.15C1065.27 258.68 1062.2 257.445 1058.52 257.445C1054.85 257.445 1051.78 258.68 1049.31 261.15C1046.9 263.683 1045.7 266.818 1045.7 270.555C1045.7 274.292 1046.9 277.427 1049.31 279.96Z" fill="#374FF2"/>
<path d="M1076.38 288.415C1071.57 293.228 1065.62 295.635 1058.52 295.635C1051.43 295.635 1045.48 293.228 1040.66 288.415C1035.85 283.602 1033.44 277.648 1033.44 270.555C1033.44 263.525 1035.85 257.603 1040.66 252.79C1045.54 247.913 1051.49 245.475 1058.52 245.475C1065.55 245.475 1071.51 247.913 1076.38 252.79C1081.26 257.667 1083.7 263.588 1083.7 270.555C1083.7 277.585 1081.26 283.538 1076.38 288.415ZM1049.31 279.96C1051.78 282.43 1054.85 283.665 1058.52 283.665C1062.2 283.665 1065.27 282.43 1067.74 279.96C1070.21 277.49 1071.44 274.355 1071.44 270.555C1071.44 266.755 1070.21 263.62 1067.74 261.15C1065.27 258.68 1062.2 257.445 1058.52 257.445C1054.85 257.445 1051.78 258.68 1049.31 261.15C1046.9 263.683 1045.7 266.818 1045.7 270.555C1045.7 274.292 1046.9 277.427 1049.31 279.96Z" fill="url(#paint34_linear_1509_288)"/>
<path d="M1104.57 246.805V254.975C1105.65 251.998 1107.49 249.75 1110.08 248.23C1112.68 246.647 1115.66 245.855 1119.01 245.855V259.535C1115.28 259.028 1111.92 259.788 1108.94 261.815C1106.03 263.778 1104.57 267.04 1104.57 271.6V294.305H1092.32V246.805H1104.57Z" fill="#374FF2"/>
<path d="M1104.57 246.805V254.975C1105.65 251.998 1107.49 249.75 1110.08 248.23C1112.68 246.647 1115.66 245.855 1119.01 245.855V259.535C1115.28 259.028 1111.92 259.788 1108.94 261.815C1106.03 263.778 1104.57 267.04 1104.57 271.6V294.305H1092.32V246.805H1104.57Z" fill="url(#paint35_linear_1509_288)"/>
<path d="M1178.72 245.475C1184.16 245.475 1188.5 247.248 1191.73 250.795C1195.03 254.342 1196.67 259.092 1196.67 265.045V294.305H1184.42V265.9C1184.42 263.05 1183.72 260.833 1182.33 259.25C1180.93 257.667 1178.97 256.875 1176.44 256.875C1173.65 256.875 1171.47 257.793 1169.88 259.63C1168.36 261.467 1167.6 264.127 1167.6 267.61V294.305H1155.35V265.9C1155.35 263.05 1154.65 260.833 1153.26 259.25C1151.86 257.667 1149.9 256.875 1147.37 256.875C1144.64 256.875 1142.46 257.825 1140.81 259.725C1139.23 261.562 1138.44 264.19 1138.44 267.61V294.305H1126.18V246.805H1138.44V251.84C1141.29 247.597 1145.69 245.475 1151.64 245.475C1157.53 245.475 1161.84 247.755 1164.56 252.315C1167.67 247.755 1172.38 245.475 1178.72 245.475Z" fill="#374FF2"/>
<path d="M1178.72 245.475C1184.16 245.475 1188.5 247.248 1191.73 250.795C1195.03 254.342 1196.67 259.092 1196.67 265.045V294.305H1184.42V265.9C1184.42 263.05 1183.72 260.833 1182.33 259.25C1180.93 257.667 1178.97 256.875 1176.44 256.875C1173.65 256.875 1171.47 257.793 1169.88 259.63C1168.36 261.467 1167.6 264.127 1167.6 267.61V294.305H1155.35V265.9C1155.35 263.05 1154.65 260.833 1153.26 259.25C1151.86 257.667 1149.9 256.875 1147.37 256.875C1144.64 256.875 1142.46 257.825 1140.81 259.725C1139.23 261.562 1138.44 264.19 1138.44 267.61V294.305H1126.18V246.805H1138.44V251.84C1141.29 247.597 1145.69 245.475 1151.64 245.475C1157.53 245.475 1161.84 247.755 1164.56 252.315C1167.67 247.755 1172.38 245.475 1178.72 245.475Z" fill="url(#paint36_linear_1509_288)"/>
<path d="M1228.56 271.98H1215.45C1215.45 269.383 1216.25 266.818 1217.83 264.285C1219.41 261.752 1221.28 259.63 1223.43 257.92C1228.75 253.613 1231.41 249.687 1231.41 246.14C1231.41 243.923 1230.65 242.213 1229.13 241.01C1227.61 239.807 1225.49 239.205 1222.77 239.205C1217.45 239.205 1213.68 242.023 1211.46 247.66L1200.25 241.2C1202.15 236.577 1205.16 232.967 1209.28 230.37C1213.4 227.773 1218.05 226.475 1223.24 226.475C1228.94 226.475 1233.92 228.153 1238.16 231.51C1242.4 234.803 1244.52 239.363 1244.52 245.19C1244.52 247.787 1243.95 250.257 1242.81 252.6C1241.74 254.88 1240.41 256.843 1238.82 258.49C1237.3 260.073 1235.75 261.593 1234.17 263.05C1232.65 264.443 1231.32 265.9 1230.18 267.42C1229.1 268.94 1228.56 270.46 1228.56 271.98ZM1230.08 287.465C1230.08 289.682 1229.29 291.582 1227.71 293.165C1226.13 294.748 1224.23 295.54 1222.01 295.54C1219.79 295.54 1217.89 294.748 1216.31 293.165C1214.73 291.582 1213.93 289.682 1213.93 287.465C1213.93 285.248 1214.73 283.348 1216.31 281.765C1217.89 280.182 1219.79 279.39 1222.01 279.39C1224.23 279.39 1226.13 280.182 1227.71 281.765C1229.29 283.348 1230.08 285.248 1230.08 287.465Z" fill="#374FF2"/>
<path d="M1228.56 271.98H1215.45C1215.45 269.383 1216.25 266.818 1217.83 264.285C1219.41 261.752 1221.28 259.63 1223.43 257.92C1228.75 253.613 1231.41 249.687 1231.41 246.14C1231.41 243.923 1230.65 242.213 1229.13 241.01C1227.61 239.807 1225.49 239.205 1222.77 239.205C1217.45 239.205 1213.68 242.023 1211.46 247.66L1200.25 241.2C1202.15 236.577 1205.16 232.967 1209.28 230.37C1213.4 227.773 1218.05 226.475 1223.24 226.475C1228.94 226.475 1233.92 228.153 1238.16 231.51C1242.4 234.803 1244.52 239.363 1244.52 245.19C1244.52 247.787 1243.95 250.257 1242.81 252.6C1241.74 254.88 1240.41 256.843 1238.82 258.49C1237.3 260.073 1235.75 261.593 1234.17 263.05C1232.65 264.443 1231.32 265.9 1230.18 267.42C1229.1 268.94 1228.56 270.46 1228.56 271.98ZM1230.08 287.465C1230.08 289.682 1229.29 291.582 1227.71 293.165C1226.13 294.748 1224.23 295.54 1222.01 295.54C1219.79 295.54 1217.89 294.748 1216.31 293.165C1214.73 291.582 1213.93 289.682 1213.93 287.465C1213.93 285.248 1214.73 283.348 1216.31 281.765C1217.89 280.182 1219.79 279.39 1222.01 279.39C1224.23 279.39 1226.13 280.182 1227.71 281.765C1229.29 283.348 1230.08 285.248 1230.08 287.465Z" fill="url(#paint37_linear_1509_288)"/>
<defs>
<linearGradient id="paint0_linear_1509_288" x1="-56.9286" y1="108.519" x2="1296.31" y2="229.846" gradientUnits="userSpaceOnUse">
<stop stop-color="#E41ED7"/>
<stop offset="0.510417" stop-color="#374FF2"/>
<stop offset="1" stop-color="#E51FD8"/>
</linearGradient>
<linearGradient id="paint1_linear_1509_288" x1="-56.9286" y1="108.519" x2="1296.31" y2="229.846" gradientUnits="userSpaceOnUse">
<stop stop-color="#E41ED7"/>
<stop offset="0.510417" stop-color="#374FF2"/>
<stop offset="1" stop-color="#E51FD8"/>
</linearGradient>
<linearGradient id="paint2_linear_1509_288" x1="-56.9286" y1="108.519" x2="1296.31" y2="229.846" gradientUnits="userSpaceOnUse">
<stop stop-color="#E41ED7"/>
<stop offset="0.510417" stop-color="#374FF2"/>
<stop offset="1" stop-color="#E51FD8"/>
</linearGradient>
<linearGradient id="paint3_linear_1509_288" x1="-56.9286" y1="108.519" x2="1296.31" y2="229.846" gradientUnits="userSpaceOnUse">
<stop stop-color="#E41ED7"/>
<stop offset="0.510417" stop-color="#374FF2"/>
<stop offset="1" stop-color="#E51FD8"/>
</linearGradient>
<linearGradient id="paint4_linear_1509_288" x1="-56.9286" y1="108.519" x2="1296.31" y2="229.846" gradientUnits="userSpaceOnUse">
<stop stop-color="#E41ED7"/>
<stop offset="0.510417" stop-color="#374FF2"/>
<stop offset="1" stop-color="#E51FD8"/>
</linearGradient>
<linearGradient id="paint5_linear_1509_288" x1="-56.9286" y1="108.519" x2="1296.31" y2="229.846" gradientUnits="userSpaceOnUse">
<stop stop-color="#E41ED7"/>
<stop offset="0.510417" stop-color="#374FF2"/>
<stop offset="1" stop-color="#E51FD8"/>
</linearGradient>
<linearGradient id="paint6_linear_1509_288" x1="-56.9286" y1="108.519" x2="1296.31" y2="229.846" gradientUnits="userSpaceOnUse">
<stop stop-color="#E41ED7"/>
<stop offset="0.510417" stop-color="#374FF2"/>
<stop offset="1" stop-color="#E51FD8"/>
</linearGradient>
<linearGradient id="paint7_linear_1509_288" x1="-56.9286" y1="108.519" x2="1296.31" y2="229.846" gradientUnits="userSpaceOnUse">
<stop stop-color="#E41ED7"/>
<stop offset="0.510417" stop-color="#374FF2"/>
<stop offset="1" stop-color="#E51FD8"/>
</linearGradient>
<linearGradient id="paint8_linear_1509_288" x1="-56.9286" y1="108.519" x2="1296.31" y2="229.846" gradientUnits="userSpaceOnUse">
<stop stop-color="#E41ED7"/>
<stop offset="0.510417" stop-color="#374FF2"/>
<stop offset="1" stop-color="#E51FD8"/>
</linearGradient>
<linearGradient id="paint9_linear_1509_288" x1="-56.9286" y1="108.519" x2="1296.31" y2="229.846" gradientUnits="userSpaceOnUse">
<stop stop-color="#E41ED7"/>
<stop offset="0.510417" stop-color="#374FF2"/>
<stop offset="1" stop-color="#E51FD8"/>
</linearGradient>
<linearGradient id="paint10_linear_1509_288" x1="-56.9286" y1="108.519" x2="1296.31" y2="229.846" gradientUnits="userSpaceOnUse">
<stop stop-color="#E41ED7"/>
<stop offset="0.510417" stop-color="#374FF2"/>
<stop offset="1" stop-color="#E51FD8"/>
</linearGradient>
<linearGradient id="paint11_linear_1509_288" x1="-56.9286" y1="108.519" x2="1296.31" y2="229.846" gradientUnits="userSpaceOnUse">
<stop stop-color="#E41ED7"/>
<stop offset="0.510417" stop-color="#374FF2"/>
<stop offset="1" stop-color="#E51FD8"/>
</linearGradient>
<linearGradient id="paint12_linear_1509_288" x1="-56.9286" y1="108.519" x2="1296.31" y2="229.846" gradientUnits="userSpaceOnUse">
<stop stop-color="#E41ED7"/>
<stop offset="0.510417" stop-color="#374FF2"/>
<stop offset="1" stop-color="#E51FD8"/>
</linearGradient>
<linearGradient id="paint13_linear_1509_288" x1="-56.9286" y1="108.519" x2="1296.31" y2="229.846" gradientUnits="userSpaceOnUse">
<stop stop-color="#E41ED7"/>
<stop offset="0.510417" stop-color="#374FF2"/>
<stop offset="1" stop-color="#E51FD8"/>
</linearGradient>
<linearGradient id="paint14_linear_1509_288" x1="-56.9286" y1="108.519" x2="1296.31" y2="229.846" gradientUnits="userSpaceOnUse">
<stop stop-color="#E41ED7"/>
<stop offset="0.510417" stop-color="#374FF2"/>
<stop offset="1" stop-color="#E51FD8"/>
</linearGradient>
<linearGradient id="paint15_linear_1509_288" x1="-56.9286" y1="108.519" x2="1296.31" y2="229.846" gradientUnits="userSpaceOnUse">
<stop stop-color="#E41ED7"/>
<stop offset="0.510417" stop-color="#374FF2"/>
<stop offset="1" stop-color="#E51FD8"/>
</linearGradient>
<linearGradient id="paint16_linear_1509_288" x1="-56.9286" y1="108.519" x2="1296.31" y2="229.846" gradientUnits="userSpaceOnUse">
<stop stop-color="#E41ED7"/>
<stop offset="0.510417" stop-color="#374FF2"/>
<stop offset="1" stop-color="#E51FD8"/>
</linearGradient>
<linearGradient id="paint17_linear_1509_288" x1="-56.9286" y1="108.519" x2="1296.31" y2="229.846" gradientUnits="userSpaceOnUse">
<stop stop-color="#E41ED7"/>
<stop offset="0.510417" stop-color="#374FF2"/>
<stop offset="1" stop-color="#E51FD8"/>
</linearGradient>
<linearGradient id="paint18_linear_1509_288" x1="-56.9286" y1="108.519" x2="1296.31" y2="229.846" gradientUnits="userSpaceOnUse">
<stop stop-color="#E41ED7"/>
<stop offset="0.510417" stop-color="#374FF2"/>
<stop offset="1" stop-color="#E51FD8"/>
</linearGradient>
<linearGradient id="paint19_linear_1509_288" x1="-56.9286" y1="108.519" x2="1296.31" y2="229.846" gradientUnits="userSpaceOnUse">
<stop stop-color="#E41ED7"/>
<stop offset="0.510417" stop-color="#374FF2"/>
<stop offset="1" stop-color="#E51FD8"/>
</linearGradient>
<linearGradient id="paint20_linear_1509_288" x1="-56.9286" y1="108.519" x2="1296.31" y2="229.846" gradientUnits="userSpaceOnUse">
<stop stop-color="#E41ED7"/>
<stop offset="0.510417" stop-color="#374FF2"/>
<stop offset="1" stop-color="#E51FD8"/>
</linearGradient>
<linearGradient id="paint21_linear_1509_288" x1="-56.9286" y1="108.519" x2="1296.31" y2="229.846" gradientUnits="userSpaceOnUse">
<stop stop-color="#E41ED7"/>
<stop offset="0.510417" stop-color="#374FF2"/>
<stop offset="1" stop-color="#E51FD8"/>
</linearGradient>
<linearGradient id="paint22_linear_1509_288" x1="-56.9286" y1="108.519" x2="1296.31" y2="229.846" gradientUnits="userSpaceOnUse">
<stop stop-color="#E41ED7"/>
<stop offset="0.510417" stop-color="#374FF2"/>
<stop offset="1" stop-color="#E51FD8"/>
</linearGradient>
<linearGradient id="paint23_linear_1509_288" x1="-56.9286" y1="108.519" x2="1296.31" y2="229.846" gradientUnits="userSpaceOnUse">
<stop stop-color="#E41ED7"/>
<stop offset="0.510417" stop-color="#374FF2"/>
<stop offset="1" stop-color="#E51FD8"/>
</linearGradient>
<linearGradient id="paint24_linear_1509_288" x1="-56.9286" y1="108.519" x2="1296.31" y2="229.846" gradientUnits="userSpaceOnUse">
<stop stop-color="#E41ED7"/>
<stop offset="0.510417" stop-color="#374FF2"/>
<stop offset="1" stop-color="#E51FD8"/>
</linearGradient>
<linearGradient id="paint25_linear_1509_288" x1="-56.9286" y1="108.519" x2="1296.31" y2="229.846" gradientUnits="userSpaceOnUse">
<stop stop-color="#E41ED7"/>
<stop offset="0.510417" stop-color="#374FF2"/>
<stop offset="1" stop-color="#E51FD8"/>
</linearGradient>
<linearGradient id="paint26_linear_1509_288" x1="-56.9286" y1="108.519" x2="1296.31" y2="229.846" gradientUnits="userSpaceOnUse">
<stop stop-color="#E41ED7"/>
<stop offset="0.510417" stop-color="#374FF2"/>
<stop offset="1" stop-color="#E51FD8"/>
</linearGradient>
<linearGradient id="paint27_linear_1509_288" x1="-56.9286" y1="108.519" x2="1296.31" y2="229.846" gradientUnits="userSpaceOnUse">
<stop stop-color="#E41ED7"/>
<stop offset="0.510417" stop-color="#374FF2"/>
<stop offset="1" stop-color="#E51FD8"/>
</linearGradient>
<linearGradient id="paint28_linear_1509_288" x1="-56.9286" y1="108.519" x2="1296.31" y2="229.846" gradientUnits="userSpaceOnUse">
<stop stop-color="#E41ED7"/>
<stop offset="0.510417" stop-color="#374FF2"/>
<stop offset="1" stop-color="#E51FD8"/>
</linearGradient>
<linearGradient id="paint29_linear_1509_288" x1="-56.9286" y1="108.519" x2="1296.31" y2="229.846" gradientUnits="userSpaceOnUse">
<stop stop-color="#E41ED7"/>
<stop offset="0.510417" stop-color="#374FF2"/>
<stop offset="1" stop-color="#E51FD8"/>
</linearGradient>
<linearGradient id="paint30_linear_1509_288" x1="-56.9286" y1="108.519" x2="1296.31" y2="229.846" gradientUnits="userSpaceOnUse">
<stop stop-color="#E41ED7"/>
<stop offset="0.510417" stop-color="#374FF2"/>
<stop offset="1" stop-color="#E51FD8"/>
</linearGradient>
<linearGradient id="paint31_linear_1509_288" x1="-56.9286" y1="108.519" x2="1296.31" y2="229.846" gradientUnits="userSpaceOnUse">
<stop stop-color="#E41ED7"/>
<stop offset="0.510417" stop-color="#374FF2"/>
<stop offset="1" stop-color="#E51FD8"/>
</linearGradient>
<linearGradient id="paint32_linear_1509_288" x1="-56.9286" y1="108.519" x2="1296.31" y2="229.846" gradientUnits="userSpaceOnUse">
<stop stop-color="#E41ED7"/>
<stop offset="0.510417" stop-color="#374FF2"/>
<stop offset="1" stop-color="#E51FD8"/>
</linearGradient>
<linearGradient id="paint33_linear_1509_288" x1="-56.9286" y1="108.519" x2="1296.31" y2="229.846" gradientUnits="userSpaceOnUse">
<stop stop-color="#E41ED7"/>
<stop offset="0.510417" stop-color="#374FF2"/>
<stop offset="1" stop-color="#E51FD8"/>
</linearGradient>
<linearGradient id="paint34_linear_1509_288" x1="-56.9286" y1="108.519" x2="1296.31" y2="229.846" gradientUnits="userSpaceOnUse">
<stop stop-color="#E41ED7"/>
<stop offset="0.510417" stop-color="#374FF2"/>
<stop offset="1" stop-color="#E51FD8"/>
</linearGradient>
<linearGradient id="paint35_linear_1509_288" x1="-56.9286" y1="108.519" x2="1296.31" y2="229.846" gradientUnits="userSpaceOnUse">
<stop stop-color="#E41ED7"/>
<stop offset="0.510417" stop-color="#374FF2"/>
<stop offset="1" stop-color="#E51FD8"/>
</linearGradient>
<linearGradient id="paint36_linear_1509_288" x1="-56.9286" y1="108.519" x2="1296.31" y2="229.846" gradientUnits="userSpaceOnUse">
<stop stop-color="#E41ED7"/>
<stop offset="0.510417" stop-color="#374FF2"/>
<stop offset="1" stop-color="#E51FD8"/>
</linearGradient>
<linearGradient id="paint37_linear_1509_288" x1="-56.9286" y1="108.519" x2="1296.31" y2="229.846" gradientUnits="userSpaceOnUse">
<stop stop-color="#E41ED7"/>
<stop offset="0.510417" stop-color="#374FF2"/>
<stop offset="1" stop-color="#E51FD8"/>
</linearGradient>
</defs>
</svg>
